<svg width="453" height="30" viewBox="0 0 453 30" fill="none" xmlns="http://www.w3.org/2000/svg">
<g clip-path="url(#clip0_2497_5226)">
<g filter="url(#filter0_d_2497_5226)">
<path d="M2.75405 25.9077L2.20374 25.8016L2.0752 26.4681H2.75405V25.9077ZM31.1351 25.9077V26.4681H31.814L31.6855 25.8016L31.1351 25.9077ZM26.4274 1.49457L26.9777 1.38845L26.8039 0.487418L26.0817 1.05345L26.4274 1.49457ZM16.9446 8.92612L16.5989 9.36729L16.9446 9.63817L17.2903 9.36729L16.9446 8.92612ZM7.46182 1.49457L7.80752 1.05345L7.08526 0.487418L6.9115 1.38845L7.46182 1.49457ZM2.75405 26.4681H31.1351V25.3473H2.75405V26.4681ZM31.6855 25.8016L26.9777 1.38845L25.8771 1.60069L30.5849 26.0139L31.6855 25.8016ZM26.0817 1.05345L16.5989 8.48499L17.2903 9.36729L26.7731 1.9357L26.0817 1.05345ZM17.2903 8.48499L7.80752 1.05345L7.11612 1.9357L16.5989 9.36729L17.2903 8.48499ZM6.9115 1.38845L2.20374 25.8016L3.30436 26.0139L8.01213 1.60069L6.9115 1.38845ZM33.6579 25.9077H33.0975V26.4681H33.6579V25.9077ZM51.6484 25.9077V26.4681H52.2088V25.9077H51.6484ZM51.6484 17.6355H52.2088V17.0751H51.6484V17.6355ZM41.9302 17.6355H41.3698V18.1959H41.9302V17.6355ZM41.9302 14.8444V14.284H41.3698V14.8444H41.9302ZM49.8325 14.8444V15.4049H50.3929V14.8444H49.8325ZM49.8325 13.2976H50.3929V12.7372H49.8325V13.2976ZM41.9302 13.2976H41.3698V13.858H41.9302V13.2976ZM41.9302 10.6411V10.0806H41.3698V10.6411H41.9302ZM51.6484 10.6411V11.2015H52.2088V10.6411H51.6484ZM51.6484 2.36887H52.2088V1.80843H51.6484V2.36887ZM33.6579 2.36887V1.80843H33.0975V2.36887H33.6579ZM33.6579 26.4681H51.6484V25.3473H33.6579V26.4681ZM52.2088 25.9077V17.6355H51.0879V25.9077H52.2088ZM51.6484 17.0751H41.9302V18.1959H51.6484V17.0751ZM42.4907 17.6355V14.8444H41.3698V17.6355H42.4907ZM41.9302 15.4049H49.8325V14.284H41.9302V15.4049ZM50.3929 14.8444V13.2976H49.2721V14.8444H50.3929ZM49.8325 12.7372H41.9302V13.858H49.8325V12.7372ZM42.4907 13.2976V10.6411H41.3698V13.2976H42.4907ZM41.9302 11.2015H51.6484V10.0806H41.9302V11.2015ZM52.2088 10.6411V2.36887H51.0879V10.6411H52.2088ZM51.6484 1.80843H33.6579V2.92932H51.6484V1.80843ZM33.0975 2.36887V25.9077H34.2184V2.36887H33.0975ZM53.4493 25.9077L52.9496 25.6538L52.5358 26.4681H53.4493V25.9077ZM78.4004 25.9077V26.4681H79.3139L78.9001 25.6538L78.4004 25.9077ZM65.9248 1.36007L66.4245 1.10614L65.9248 0.123047L65.4252 1.10614L65.9248 1.36007ZM53.4493 26.4681H78.4004V25.3473H53.4493V26.4681ZM78.9001 25.6538L66.4245 1.10614L65.4252 1.61398L77.9008 26.1616L78.9001 25.6538ZM65.4252 1.10614L52.9496 25.6538L53.9488 26.1616L66.4245 1.61398L65.4252 1.10614ZM80.5846 25.9077H80.0241V26.4681H80.5846V25.9077ZM80.5846 2.36887V1.80843H80.0241V2.36887H80.5846ZM80.5846 26.4681H85.9312V25.3473H80.5846V26.4681ZM85.9312 26.4681C87.0431 26.4681 90.3024 26.4737 93.2926 24.9258C94.7982 24.1464 96.2421 22.9705 97.3065 21.2033C98.3705 19.4367 99.0346 17.1133 99.0346 14.0711H97.9136C97.9136 16.947 97.2873 19.0625 96.3463 20.625C95.4056 22.1869 94.13 23.2302 92.7774 23.9304C90.0509 25.3417 87.0388 25.3473 85.9312 25.3473V26.4681ZM99.0346 14.0711C99.0346 11.0535 98.3158 8.74788 97.159 6.99681C96.0034 5.24751 94.4357 4.08925 92.7972 3.32386C89.541 1.80284 85.9453 1.80843 84.5526 1.80843V2.92932C85.9508 2.92932 89.316 2.9349 92.3228 4.33942C93.8158 5.0368 95.2051 6.07269 96.2237 7.61463C97.2412 9.15479 97.9136 11.2375 97.9136 14.0711H99.0346ZM84.5526 1.80843H80.5846V2.92932H84.5526V1.80843ZM80.0241 2.36887V25.9077H81.1451V2.36887H80.0241ZM112.402 26.8717C119.675 26.8717 125.068 21.4727 125.068 14.1047H123.947C123.947 20.8599 119.05 25.7508 112.402 25.7508V26.8717ZM125.068 14.1047C125.068 6.80074 119.672 1.4049 112.369 1.4049V2.5258C119.053 2.5258 123.947 7.41979 123.947 14.1047H125.068ZM112.369 1.4049C104.999 1.4049 99.6013 6.79869 99.6013 14.1047H100.722C100.722 7.42185 105.614 2.5258 112.369 2.5258V1.4049ZM99.6013 14.1047C99.6013 21.4769 104.998 26.8717 112.402 26.8717V25.7508C105.615 25.7508 100.722 20.8557 100.722 14.1047H99.6013ZM132.783 26.9502L132.252 27.1249L132.62 28.248L133.256 27.2517L132.783 26.9502ZM139.139 16.9966L139.612 16.6949L139.139 15.9552L138.667 16.6949L139.139 16.9966ZM145.495 26.9502L145.022 27.2517L145.659 28.248L146.028 27.1249L145.495 26.9502ZM153.565 2.36887L154.098 2.54369L154.339 1.80843H153.565V2.36887ZM124.713 2.36887V1.80843H123.94L124.181 2.54369L124.713 2.36887ZM133.256 27.2517L139.612 17.2982L138.667 16.6949L132.312 26.6485L133.256 27.2517ZM138.667 17.2982L145.022 27.2517L145.968 26.6485L139.612 16.6949L138.667 17.2982ZM146.028 27.1249L154.098 2.54369L153.033 2.19405L144.962 26.7753L146.028 27.1249ZM153.565 1.80843H124.713V2.92932H153.565V1.80843ZM124.181 2.54369L132.252 27.1249L133.316 26.7753L125.246 2.19405L124.181 2.54369ZM151.691 25.9077H151.131V26.4681H151.691V25.9077ZM171.934 10.6074V11.1679H172.495V10.6074H171.934ZM171.934 2.36887H172.495V1.80843H171.934V2.36887ZM151.691 17.6355V17.0751H151.131V17.6355H151.691ZM151.691 26.4681H153.877V25.3473H151.691V26.4681ZM153.877 26.4681C157.252 26.4681 160.071 25.7443 162.35 24.1705C164.629 22.596 166.313 20.2096 167.485 16.9863L166.431 16.6033C165.317 19.6682 163.754 21.8383 161.713 23.2482C159.671 24.6588 157.093 25.3473 153.877 25.3473V26.4681ZM167.485 16.9863C168.182 15.0657 168.738 13.5941 169.425 12.5933C169.762 12.1032 170.112 11.7524 170.502 11.5223C170.885 11.295 171.336 11.1679 171.901 11.1679V10.047C171.155 10.047 170.504 10.2184 169.931 10.5576C169.363 10.8938 168.9 11.3772 168.501 11.9591C167.716 13.102 167.113 14.724 166.431 16.6033L167.485 16.9863ZM171.901 11.1679H171.934V10.047H171.901V11.1679ZM172.495 10.6074V2.36887H171.375V10.6074H172.495ZM171.934 1.80843H170.791V2.92932H171.934V1.80843ZM170.791 1.80843C167.931 1.80843 165.682 2.44275 163.865 3.82717C162.057 5.20413 160.74 7.27623 159.645 10.0305L160.686 10.4448C161.743 7.78518 162.964 5.92272 164.544 4.71882C166.115 3.52238 168.103 2.92932 170.791 2.92932V1.80843ZM159.645 10.0305C158.399 13.1611 157.432 14.8875 156.297 15.8555C155.199 16.7904 153.872 17.0751 151.691 17.0751V18.1959C153.949 18.1959 155.615 17.9089 157.023 16.7085C158.393 15.5411 159.443 13.5687 160.686 10.4448L159.645 10.0305ZM151.131 17.6355V25.9077H152.252V17.6355H151.131ZM181.408 25.9077H180.849V26.4681H181.408V25.9077ZM185.612 25.9077V26.4681H186.173V25.9077H185.612ZM185.612 14.1382H186.173V13.5778H185.612V14.1382ZM181.408 14.1382V13.5778H180.849V14.1382H181.408ZM181.408 26.4681H185.612V25.3473H181.408V26.4681ZM186.173 25.9077V14.1382H185.052V25.9077H186.173ZM185.612 13.5778H181.408V14.6988H185.612V13.5778ZM180.849 14.1382V25.9077H181.969V14.1382H180.849ZM187.631 25.9077H187.072V26.4681H187.631V25.9077ZM197.905 25.9077V26.4681H198.465V25.9077H197.905ZM197.905 14.1382H198.465V13.5778H197.905V14.1382ZM193.702 14.1382V13.5778H193.141V14.1382H193.702ZM193.702 19.8213L193.308 20.2203L194.262 21.161V19.8213H193.702ZM187.631 13.8357L188.025 13.4366L187.072 12.4959V13.8357H187.631ZM187.631 26.4681H197.905V25.3473H187.631V26.4681ZM198.465 25.9077V14.1382H197.345V25.9077H198.465ZM197.905 13.5778H193.702V14.6988H197.905V13.5778ZM193.141 14.1382V19.8213H194.262V14.1382H193.141ZM194.095 19.4221L188.025 13.4366L187.238 14.2347L193.308 20.2203L194.095 19.4221ZM187.072 13.8357V25.9077H188.192V13.8357H187.072ZM203.596 18.2744H203.035V18.8349H203.596V18.2744ZM206.79 18.2744H207.35V17.714H206.79V18.2744ZM206.79 25.9077H206.23V26.4681H206.79V25.9077ZM210.993 25.9077V26.4681H211.554V25.9077H210.993ZM210.993 18.2744V17.714H210.432V18.2744H210.993ZM213.902 18.2744V18.8349H214.462V18.2744H213.902ZM213.902 14.1382H214.462V13.5778H213.902V14.1382ZM203.596 14.1382V13.5778H203.035V14.1382H203.596ZM203.596 18.8349H206.79V17.714H203.596V18.8349ZM206.23 18.2744V25.9077H207.35V18.2744H206.23ZM206.79 26.4681H210.993V25.3473H206.79V26.4681ZM211.554 25.9077V18.2744H210.432V25.9077H211.554ZM210.993 18.8349H213.902V17.714H210.993V18.8349ZM214.462 18.2744V14.1382H213.341V18.2744H214.462ZM213.902 13.5778H203.596V14.6988H213.902V13.5778ZM203.035 14.1382V18.2744H204.156V14.1382H203.035ZM215.38 25.9077H214.821V26.4681H215.38V25.9077ZM219.584 25.9077V26.4681H220.145V25.9077H219.584ZM219.584 20.2416V19.6811H219.023V20.2416H219.584ZM221.097 20.2416H221.657V19.6811H221.097V20.2416ZM221.097 25.9077H220.537V26.4681H221.097V25.9077ZM225.301 25.9077V26.4681H225.861V25.9077H225.301ZM225.301 14.1382H225.861V13.5778H225.301V14.1382ZM221.097 14.1382V13.5778H220.537V14.1382H221.097ZM221.097 19.4682V20.0286H221.657V19.4682H221.097ZM219.584 19.4682H219.023V20.0286H219.584V19.4682ZM219.584 14.1382H220.145V13.5778H219.584V14.1382ZM215.38 14.1382V13.5778H214.821V14.1382H215.38ZM215.38 26.4681H219.584V25.3473H215.38V26.4681ZM220.145 25.9077V20.2416H219.023V25.9077H220.145ZM219.584 20.802H221.097V19.6811H219.584V20.802ZM220.537 20.2416V25.9077H221.657V20.2416H220.537ZM221.097 26.4681H225.301V25.3473H221.097V26.4681ZM225.861 25.9077V14.1382H224.74V25.9077H225.861ZM225.301 13.5778H221.097V14.6988H225.301V13.5778ZM220.537 14.1382V19.4682H221.657V14.1382H220.537ZM221.097 18.9078H219.584V20.0286H221.097V18.9078ZM220.145 19.4682V14.1382H219.023V19.4682H220.145ZM219.584 13.5778H215.38V14.6988H219.584V13.5778ZM214.821 14.1382V25.9077H215.941V14.1382H214.821ZM227.317 25.9077H226.758V26.4681H227.317V25.9077ZM236.312 25.9077V26.4681H236.873V25.9077H236.312ZM236.312 21.7716H236.873V21.2112H236.312V21.7716ZM231.454 21.7716H230.893V22.332H231.454V21.7716ZM231.454 20.3761V19.8157H230.893V20.3761H231.454ZM235.405 20.3761V20.9366H235.965V20.3761H235.405ZM235.405 19.6026H235.965V19.0422H235.405V19.6026ZM231.454 19.6026H230.893V20.1631H231.454V19.6026ZM231.454 18.2744V17.714H230.893V18.2744H231.454ZM236.312 18.2744V18.8349H236.873V18.2744H236.312ZM236.312 14.1382H236.873V13.5778H236.312V14.1382ZM227.317 14.1382V13.5778H226.758V14.1382H227.317ZM227.317 26.4681H236.312V25.3473H227.317V26.4681ZM236.873 25.9077V21.7716H235.752V25.9077H236.873ZM236.312 21.2112H231.454V22.332H236.312V21.2112ZM232.014 21.7716V20.3761H230.893V21.7716H232.014ZM231.454 20.9366H235.405V19.8157H231.454V20.9366ZM235.965 20.3761V19.6026H234.844V20.3761H235.965ZM235.405 19.0422H231.454V20.1631H235.405V19.0422ZM232.014 19.6026V18.2744H230.893V19.6026H232.014ZM231.454 18.8349H236.312V17.714H231.454V18.8349ZM236.873 18.2744V14.1382H235.752V18.2744H236.873ZM236.312 13.5778H227.317V14.6988H236.312V13.5778ZM226.758 14.1382V25.9077H227.878V14.1382H226.758ZM246.697 25.9077L246.147 25.8016L246.018 26.4681H246.697V25.9077ZM275.078 25.9077V26.4681H275.757L275.628 25.8016L275.078 25.9077ZM270.37 1.49457L270.921 1.38845L270.747 0.487418L270.025 1.05345L270.37 1.49457ZM260.887 8.92612L260.542 9.36729L260.887 9.63817L261.233 9.36729L260.887 8.92612ZM251.405 1.49457L251.75 1.05345L251.029 0.487418L250.854 1.38845L251.405 1.49457ZM246.697 26.4681H275.078V25.3473H246.697V26.4681ZM275.628 25.8016L270.921 1.38845L269.82 1.60069L274.528 26.0139L275.628 25.8016ZM270.025 1.05345L260.542 8.48499L261.233 9.36729L270.716 1.9357L270.025 1.05345ZM261.233 8.48499L251.75 1.05345L251.059 1.9357L260.542 9.36729L261.233 8.48499ZM250.854 1.38845L246.147 25.8016L247.247 26.0139L251.955 1.60069L250.854 1.38845ZM288.303 26.8717C295.576 26.8717 300.969 21.4727 300.969 14.1047H299.848C299.848 20.8599 294.951 25.7508 288.303 25.7508V26.8717ZM300.969 14.1047C300.969 6.80074 295.573 1.4049 288.269 1.4049V2.5258C294.954 2.5258 299.848 7.41979 299.848 14.1047H300.969ZM288.269 1.4049C280.901 1.4049 275.503 6.79869 275.503 14.1047H276.623C276.623 7.42185 281.515 2.5258 288.269 2.5258V1.4049ZM275.503 14.1047C275.503 21.4769 280.899 26.8717 288.303 26.8717V25.7508C281.516 25.7508 276.623 20.8557 276.623 14.1047H275.503ZM322.549 2.36887H323.11V1.80843H322.549V2.36887ZM314.008 2.36887V1.80843H313.447V2.36887H314.008ZM314.008 17.7028V18.2632H314.569V17.7028H314.008ZM311.486 17.7028H310.925V18.2632H311.486V17.7028ZM311.486 2.36887H312.047V1.80843H311.486V2.36887ZM302.945 2.36887V1.80843H302.384V2.36887H302.945ZM312.764 26.8381C315.281 26.8381 317.216 26.3513 318.695 25.5217C320.179 24.6895 321.169 23.5316 321.825 22.2496C323.119 19.7185 323.11 16.6882 323.11 14.71H321.989C321.989 16.7333 321.979 19.4868 320.827 21.7391C320.259 22.8489 319.415 23.8326 318.146 24.5441C316.873 25.2582 315.139 25.7172 312.764 25.7172V26.8381ZM323.11 14.71V2.36887H321.989V14.71H323.11ZM322.549 1.80843H314.008V2.92932H322.549V1.80843ZM313.447 2.36887V17.7028H314.569V2.36887H313.447ZM314.008 17.1423H311.486V18.2632H314.008V17.1423ZM312.047 17.7028V2.36887H310.925V17.7028H312.047ZM311.486 1.80843H302.945V2.92932H311.486V1.80843ZM302.384 2.36887V14.71H303.505V2.36887H302.384ZM302.384 14.71C302.384 16.6882 302.375 19.7188 303.674 22.2502C304.332 23.5325 305.325 24.6902 306.814 25.5221C308.297 26.3514 310.238 26.8381 312.764 26.8381V25.7172C310.38 25.7172 308.638 25.258 307.361 24.5437C306.087 23.8319 305.24 22.8479 304.671 21.7385C303.515 19.4864 303.505 16.7333 303.505 14.71H302.384ZM326.235 25.9077H325.674V26.4681H326.235V25.9077ZM346.781 25.9077V26.4681H347.341V25.9077H346.781ZM346.781 2.36887H347.341V1.80843H346.781V2.36887ZM338.374 2.36887V1.80843H337.814V2.36887H338.374ZM338.374 13.7348L337.981 14.1338L338.935 15.0745V13.7348H338.374ZM326.235 1.76358L326.629 1.36453L325.674 0.423778V1.76358H326.235ZM326.235 26.4681H346.781V25.3473H326.235V26.4681ZM347.341 25.9077V2.36887H346.221V25.9077H347.341ZM346.781 1.80843H338.374V2.92932H346.781V1.80843ZM337.814 2.36887V13.7348H338.935V2.36887H337.814ZM338.768 13.3357L326.629 1.36453L325.841 2.16264L337.981 14.1338L338.768 13.3357ZM325.674 1.76358V25.9077H326.796V1.76358H325.674ZM349.756 10.6411H349.195V11.2015H349.756V10.6411ZM356.144 10.6411H356.705V10.0806H356.144V10.6411ZM356.144 25.9077H355.584V26.4681H356.144V25.9077ZM364.551 25.9077V26.4681H365.111V25.9077H364.551ZM364.551 10.6411V10.0806H363.991V10.6411H364.551ZM370.368 10.6411V11.2015H370.929V10.6411H370.368ZM370.368 2.36887H370.929V1.80843H370.368V2.36887ZM349.756 2.36887V1.80843H349.195V2.36887H349.756ZM349.756 11.2015H356.144V10.0806H349.756V11.2015ZM355.584 10.6411V25.9077H356.705V10.6411H355.584ZM356.144 26.4681H364.551V25.3473H356.144V26.4681ZM365.111 25.9077V10.6411H363.991V25.9077H365.111ZM364.551 11.2015H370.368V10.0806H364.551V11.2015ZM370.929 10.6411V2.36887H369.809V10.6411H370.929ZM370.368 1.80843H349.756V2.92932H370.368V1.80843ZM349.195 2.36887V10.6411H350.315V2.36887H349.195ZM368.061 25.9077L367.562 25.6538L367.147 26.4681H368.061V25.9077ZM393.013 25.9077V26.4681H393.926L393.512 25.6538L393.013 25.9077ZM380.537 1.36007L381.036 1.10614L380.537 0.123047L380.037 1.10614L380.537 1.36007ZM368.061 26.4681H393.013V25.3473H368.061V26.4681ZM393.512 25.6538L381.036 1.10614L380.037 1.61398L392.513 26.1616L393.512 25.6538ZM380.037 1.10614L367.562 25.6538L368.56 26.1616L381.036 1.61398L380.037 1.10614ZM395.197 25.9077H394.636V26.4681H395.197V25.9077ZM403.603 25.9077V26.4681H404.164V25.9077H403.603ZM403.603 2.36887H404.164V1.80843H403.603V2.36887ZM395.197 2.36887V1.80843H394.636V2.36887H395.197ZM395.197 26.4681H403.603V25.3473H395.197V26.4681ZM404.164 25.9077V2.36887H403.042V25.9077H404.164ZM403.603 1.80843H395.197V2.92932H403.603V1.80843ZM394.636 2.36887V25.9077H395.757V2.36887H394.636ZM407.642 25.9077H407.082V26.4681H407.642V25.9077ZM428.188 25.9077V26.4681H428.749V25.9077H428.188ZM428.188 2.36887H428.749V1.80843H428.188V2.36887ZM419.782 2.36887V1.80843H419.221V2.36887H419.782ZM419.782 13.7348L419.388 14.1338L420.342 15.0745V13.7348H419.782ZM407.642 1.76358L408.036 1.36453L407.082 0.423778V1.76358H407.642ZM407.642 26.4681H428.188V25.3473H407.642V26.4681ZM428.749 25.9077V2.36887H427.629V25.9077H428.749ZM428.188 1.80843H419.782V2.92932H428.188V1.80843ZM419.221 2.36887V13.7348H420.342V2.36887H419.221ZM420.175 13.3357L408.036 1.36453L407.249 2.16264L419.388 14.1338L420.175 13.3357ZM407.082 1.76358V25.9077H408.203V1.76358H407.082ZM431.297 25.9077H430.736V26.4681H431.297V25.9077ZM451.541 10.6074V11.1679H452.101V10.6074H451.541ZM451.541 2.36887H452.101V1.80843H451.541V2.36887ZM431.297 17.6355V17.0751H430.736V17.6355H431.297ZM431.297 26.4681H433.482V25.3473H431.297V26.4681ZM433.482 26.4681C436.858 26.4681 439.677 25.7443 441.956 24.1705C444.236 22.596 445.918 20.2096 447.091 16.9863L446.037 16.6033C444.923 19.6682 443.361 21.8383 441.318 23.2482C439.276 24.6588 436.698 25.3473 433.482 25.3473V26.4681ZM447.091 16.9863C447.787 15.0657 448.344 13.5941 449.031 12.5933C449.367 12.1032 449.718 11.7524 450.107 11.5223C450.492 11.295 450.942 11.1679 451.507 11.1679V10.047C450.761 10.047 450.11 10.2184 449.537 10.5576C448.968 10.8938 448.506 11.3772 448.106 11.9591C447.323 13.102 446.718 14.724 446.037 16.6033L447.091 16.9863ZM451.507 11.1679H451.541V10.047H451.507V11.1679ZM452.101 10.6074V2.36887H450.98V10.6074H452.101ZM451.541 1.80843H450.397V2.92932H451.541V1.80843ZM450.397 1.80843C447.537 1.80843 445.288 2.44275 443.471 3.82717C441.664 5.20413 440.345 7.27623 439.25 10.0305L440.292 10.4448C441.35 7.78518 442.57 5.92272 444.151 4.71882C445.721 3.52238 447.708 2.92932 450.397 2.92932V1.80843ZM439.25 10.0305C438.005 13.1611 437.037 14.8875 435.902 15.8555C434.805 16.7904 433.478 17.0751 431.297 17.0751V18.1959C433.555 18.1959 435.221 17.9089 436.629 16.7085C437.999 15.5411 439.049 13.5687 440.292 10.4448L439.25 10.0305ZM430.736 17.6355V25.9077H431.858V17.6355H430.736Z" fill="#3B3539"/>
<path d="M2.75391 25.9075H31.135L26.4273 1.49437L16.9444 8.92592L7.46167 1.49437L2.75391 25.9075ZM33.6578 25.9075H51.6483V17.6353H41.93V14.8442H49.8324V13.2974H41.93V10.6409H51.6483V2.36867H33.6578V25.9075ZM53.4491 25.9075H78.4003L65.9247 1.35986L53.4491 25.9075ZM80.5845 25.9075H85.9311C88.1505 25.9075 98.474 25.9075 98.474 14.0709C98.474 2.36867 87.3434 2.36867 84.5525 2.36867H80.5845V25.9075ZM112.402 26.3111C119.363 26.3111 124.508 21.1661 124.508 14.1045C124.508 7.11006 119.363 1.96514 112.369 1.96514C105.307 1.96514 100.162 7.11006 100.162 14.1045C100.162 21.1661 105.307 26.3111 112.402 26.3111ZM132.783 26.95L139.139 16.9964L145.495 26.95L153.565 2.36867H124.713L132.783 26.95ZM151.691 25.9075H153.877C160.468 25.9075 164.672 23.0829 166.957 16.7947C168.336 12.9947 169.278 10.6072 171.901 10.6072H171.934V2.36867H170.791C165.243 2.36867 162.317 4.82343 160.165 10.2374C157.676 16.492 156.13 17.6353 151.691 17.6353V25.9075ZM181.408 25.9075H185.612V14.138H181.408V25.9075ZM187.631 25.9075H197.904V14.138H193.702V19.821L187.631 13.8354V25.9075ZM203.596 18.2742H206.789V25.9075H210.993V18.2742H213.902V14.138H203.596V18.2742ZM215.38 25.9075H219.584V20.2414H221.097V25.9075H225.301V14.138H221.097V19.468H219.584V14.138H215.38V25.9075ZM227.317 25.9075H236.312V21.7714H231.453V20.3759H235.405V19.6024H231.453V18.2742H236.312V14.138H227.317V25.9075ZM246.697 25.9075H275.078L270.37 1.49437L260.887 8.92592L251.405 1.49437L246.697 25.9075ZM288.303 26.3111C295.263 26.3111 300.408 21.1661 300.408 14.1045C300.408 7.11006 295.263 1.96514 288.269 1.96514C281.207 1.96514 276.062 7.11006 276.062 14.1045C276.062 21.1661 281.207 26.3111 288.303 26.3111ZM312.764 26.2774C322.549 26.2774 322.549 18.7113 322.549 14.7098V2.36867H314.008V17.7026H311.486V2.36867H302.945V14.7098C302.945 18.7113 302.945 26.2774 312.764 26.2774ZM326.235 25.9075H346.781V2.36867H338.374V13.7346L326.235 1.76338V25.9075ZM349.755 10.6409H356.144V25.9075H364.55V10.6409H370.368V2.36867H349.755V10.6409ZM368.061 25.9075H393.013L380.537 1.35986L368.061 25.9075ZM395.197 25.9075H403.603V2.36867H395.197V25.9075ZM407.642 25.9075H428.188V2.36867H419.782V13.7346L407.642 1.76338V25.9075ZM431.297 25.9075H433.482C440.073 25.9075 444.277 23.0829 446.564 16.7947C447.943 12.9947 448.884 10.6072 451.507 10.6072H451.541V2.36867H450.397C444.849 2.36867 441.923 4.82343 439.771 10.2374C437.283 16.492 435.736 17.6353 431.297 17.6353V25.9075Z" fill="#D9674F"/>
</g>
</g>
<defs>
<filter id="filter0_d_2497_5226" x="0.993925" y="0.123047" width="451.107" height="29.2063" filterUnits="userSpaceOnUse" color-interpolation-filters="sRGB">
<feFlood flood-opacity="0" result="BackgroundImageFix"/>
<feColorMatrix in="SourceAlpha" type="matrix" values="0 0 0 0 0 0 0 0 0 0 0 0 0 0 0 0 0 0 127 0" result="hardAlpha"/>
<feOffset dx="-1.08127" dy="1.08127"/>
<feComposite in2="hardAlpha" operator="out"/>
<feColorMatrix type="matrix" values="0 0 0 0 0.231373 0 0 0 0 0.207843 0 0 0 0 0.223529 0 0 0 1 0"/>
<feBlend mode="normal" in2="BackgroundImageFix" result="effect1_dropShadow_2497_5226"/>
<feBlend mode="normal" in="SourceGraphic" in2="effect1_dropShadow_2497_5226" result="shape"/>
</filter>
<clipPath id="clip0_2497_5226">
<rect width="453" height="30" fill="white"/>
</clipPath>
</defs>
</svg>
