<?xml version="1.0" encoding="utf-8"?>
<!-- Generator: Adobe Illustrator 27.2.0, SVG Export Plug-In . SVG Version: 6.00 Build 0)  -->
<svg version="1.1" id="Layer_1" xmlns="http://www.w3.org/2000/svg" xmlns:xlink="http://www.w3.org/1999/xlink" x="0px" y="0px"
	 viewBox="0 0 412.6 28.3" style="enable-background:new 0 0 412.6 28.3;" xml:space="preserve">
<style type="text/css">
	.st0{fill:#3B3539;}
	.st1{fill:#D9674F;}
</style>
<g>
	<path class="st0" d="M0.7,26l-0.5-0.1L0,26.6h0.7V26z M28,26v0.5h0.7l-0.1-0.6L28,26z M23.5,2.5L24,2.4l-0.2-0.9l-0.7,0.5L23.5,2.5
		z M14.3,9.7L14,10.1l0.3,0.3l0.3-0.3L14.3,9.7z M5.2,2.5l0.3-0.4L4.8,1.5L4.7,2.4L5.2,2.5z M0.7,26.6H28v-1.1H0.7V26.6z M28.6,25.9
		L24,2.4L23,2.6l4.5,23.6L28.6,25.9z M23.2,2.1L14,9.2l0.7,0.9l9.1-7.2L23.2,2.1z M14.7,9.2L5.5,2.1L4.9,2.9l9.1,7.2L14.7,9.2z
		 M4.7,2.4L0.1,25.9l1.1,0.2L5.7,2.6L4.7,2.4z M30.5,26h-0.5v0.5h0.5V26z M47.8,26v0.5h0.5V26H47.8z M47.8,18.1h0.5v-0.5h-0.5V18.1z
		 M38.4,18.1h-0.5v0.5h0.5V18.1z M38.4,15.4v-0.5h-0.5v0.5H38.4z M46.1,15.4v0.5h0.5v-0.5H46.1z M46.1,13.9h0.5v-0.5h-0.5V13.9z
		 M38.4,13.9h-0.5v0.5h0.5V13.9z M38.4,11.3v-0.5h-0.5v0.5H38.4z M47.8,11.3v0.5h0.5v-0.5H47.8z M47.8,3.3h0.5V2.8h-0.5V3.3z
		 M30.5,3.3V2.8h-0.5v0.5H30.5z M30.5,26.6h17.4v-1.1H30.5V26.6z M48.4,26v-8h-1.1v8H48.4z M47.8,17.5h-9.4v1.1h9.4V17.5z M39,18.1
		v-2.7h-1.1v2.7H39z M38.4,15.9h7.6v-1.1h-7.6V15.9z M46.6,15.4v-1.5h-1.1v1.5H46.6z M46.1,13.3h-7.6v1.1h7.6V13.3z M39,13.9v-2.6
		h-1.1v2.6H39z M38.4,11.9h9.4v-1.1h-9.4V11.9z M48.4,11.3v-8h-1.1v8H48.4z M47.8,2.8H30.5v1.1h17.4V2.8z M29.9,3.3V26H31V3.3H29.9z
		 M49.6,26l-0.5-0.2l-0.4,0.8h0.9V26z M73.6,26v0.5h0.9l-0.4-0.8L73.6,26z M61.6,2.4l0.5-0.2l-0.5-0.9l-0.5,0.9L61.6,2.4z
		 M49.6,26.6h24.1v-1.1H49.6V26.6z M74.1,25.8l-12-23.7l-1,0.5l12,23.7L74.1,25.8z M61.1,2.1l-12,23.7l1,0.5l12-23.7L61.1,2.1z
		 M75.7,26h-0.5v0.5h0.5V26z M75.7,3.3V2.8h-0.5v0.5H75.7z M75.7,26.6h5.2v-1.1h-5.2V26.6z M80.9,26.6c1.1,0,4.2,0,7.1-1.5
		c1.5-0.8,2.8-1.9,3.9-3.6c1-1.7,1.7-3.9,1.7-6.9h-1.1c0,2.8-0.6,4.8-1.5,6.3c-0.9,1.5-2.1,2.5-3.4,3.2c-2.6,1.4-5.5,1.4-6.6,1.4
		V26.6z M93.5,14.6c0-2.9-0.7-5.1-1.8-6.8c-1.1-1.7-2.6-2.8-4.2-3.5c-3.1-1.5-6.6-1.5-8-1.5v1.1c1.3,0,4.6,0,7.5,1.4
		c1.4,0.7,2.8,1.7,3.8,3.2c1,1.5,1.6,3.5,1.6,6.2H93.5z M79.6,2.8h-3.8v1.1h3.8V2.8z M75.2,3.3V26h1.1V3.3H75.2z M106.4,27
		c7,0,12.2-5.2,12.2-12.3h-1.1c0,6.5-4.7,11.2-11.1,11.2V27z M118.6,14.7c0-7-5.2-12.3-12.3-12.3v1.1c6.4,0,11.2,4.7,11.2,11.2
		H118.6z M106.4,2.4c-7.1,0-12.3,5.2-12.3,12.3h1.1c0-6.4,4.7-11.2,11.2-11.2V2.4z M94.1,14.7c0,7.1,5.2,12.3,12.3,12.3v-1.1
		c-6.5,0-11.3-4.7-11.3-11.2H94.1z M126.1,27l-0.5,0.2l0.4,1.1l0.6-1L126.1,27z M132.2,17.4l0.5-0.3l-0.5-0.7l-0.5,0.7L132.2,17.4z
		 M138.3,27l-0.5,0.3l0.6,1l0.4-1.1L138.3,27z M146.1,3.3l0.5,0.2l0.2-0.7h-0.7V3.3z M118.3,3.3V2.8h-0.7l0.2,0.7L118.3,3.3z
		 M126.5,27.3l6.1-9.6l-0.9-0.6l-6.1,9.6L126.5,27.3z M131.8,17.7l6.1,9.6l0.9-0.6l-6.1-9.6L131.8,17.7z M138.9,27.2l7.8-23.7
		l-1-0.3l-7.8,23.7L138.9,27.2z M146.1,2.8h-27.8v1.1h27.8V2.8z M117.8,3.5l7.8,23.7l1-0.3l-7.8-23.7L117.8,3.5z M144.3,26h-0.5v0.5
		h0.5V26z M159.1,17.2l0.5,0.2v0L159.1,17.2z M163.9,11.3v0.5h0.5v-0.5H163.9z M163.9,3.3h0.5V2.8h-0.5V3.3z M152.5,10.9l0.5,0.2v0
		L152.5,10.9z M144.3,18.1v-0.5h-0.5v0.5H144.3z M144.3,26.6h2.1v-1.1h-2.1V26.6z M146.4,26.6c3.3,0,6-0.7,8.2-2.2
		c2.2-1.5,3.8-3.8,5-6.9l-1-0.4c-1.1,3-2.6,5-4.6,6.4c-2,1.4-4.5,2-7.6,2V26.6z M159.6,17.4c0.7-1.9,1.2-3.3,1.9-4.2
		c0.3-0.5,0.7-0.8,1-1c0.4-0.2,0.8-0.3,1.4-0.3v-1.1c-0.7,0-1.3,0.2-1.9,0.5c-0.5,0.3-1,0.8-1.4,1.4c-0.8,1.1-1.3,2.7-2,4.5
		L159.6,17.4z M163.8,11.8L163.8,11.8l0-1.1h0V11.8z M164.4,11.3V3.3h-1.1v7.9H164.4z M163.9,2.8h-1.1v1.1h1.1V2.8z M162.8,2.8
		c-2.8,0-4.9,0.6-6.7,1.9c-1.7,1.3-3,3.3-4.1,6l1,0.4c1-2.6,2.2-4.4,3.7-5.5c1.5-1.2,3.4-1.7,6-1.7V2.8z M152,10.7
		c-1.2,3-2.1,4.7-3.2,5.6c-1.1,0.9-2.3,1.2-4.4,1.2v1.1c2.2,0,3.8-0.3,5.1-1.4c1.3-1.1,2.3-3,3.5-6L152,10.7z M143.8,18.1v8h1.1v-8
		H143.8z M173,26h-0.5v0.5h0.5V26z M177,26v0.5h0.5V26H177z M177,14.7h0.5v-0.5H177V14.7z M173,14.7v-0.5h-0.5v0.5H173z M173,26.6
		h4.1v-1.1H173V26.6z M177.6,26V14.7h-1.1V26H177.6z M177,14.1H173v1.1h4.1V14.1z M172.5,14.7V26h1.1V14.7H172.5z M179,26h-0.5v0.5
		h0.5V26z M188.9,26v0.5h0.5V26H188.9z M188.9,14.7h0.5v-0.5h-0.5V14.7z M184.9,14.7v-0.5h-0.5v0.5H184.9z M184.9,20.2l-0.4,0.4
		l0.9,0.9v-1.3H184.9z M179,14.4l0.4-0.4l-0.9-0.9v1.3H179z M179,26.6h9.9v-1.1H179V26.6z M189.4,26V14.7h-1.1V26H189.4z
		 M188.9,14.1h-4.1v1.1h4.1V14.1z M184.3,14.7v5.5h1.1v-5.5H184.3z M185.2,19.8l-5.9-5.8l-0.8,0.8l5.9,5.8L185.2,19.8z M178.5,14.4
		V26h1.1V14.4H178.5z M194.4,18.7h-0.5v0.5h0.5V18.7z M197.5,18.7h0.5v-0.5h-0.5V18.7z M197.5,26h-0.5v0.5h0.5V26z M201.5,26v0.5
		h0.5V26H201.5z M201.5,18.7v-0.5H201v0.5H201.5z M204.3,18.7v0.5h0.5v-0.5H204.3z M204.3,14.7h0.5v-0.5h-0.5V14.7z M194.4,14.7
		v-0.5h-0.5v0.5H194.4z M194.4,19.2h3.1v-1.1h-3.1V19.2z M196.9,18.7V26h1.1v-7.4H196.9z M197.5,26.6h4.1v-1.1h-4.1V26.6z M202.1,26
		v-7.4H201V26H202.1z M201.5,19.2h2.8v-1.1h-2.8V19.2z M204.9,18.7v-4h-1.1v4H204.9z M204.3,14.1h-9.9v1.1h9.9V14.1z M193.9,14.7v4
		h1.1v-4H193.9z M205.8,26h-0.5v0.5h0.5V26z M209.8,26v0.5h0.5V26H209.8z M209.8,20.6V20h-0.5v0.5H209.8z M211.3,20.6h0.5V20h-0.5
		V20.6z M211.3,26h-0.5v0.5h0.5V26z M215.3,26v0.5h0.5V26H215.3z M215.3,14.7h0.5v-0.5h-0.5V14.7z M211.3,14.7v-0.5h-0.5v0.5H211.3z
		 M211.3,19.8v0.5h0.5v-0.5H211.3z M209.8,19.8h-0.5v0.5h0.5V19.8z M209.8,14.7h0.5v-0.5h-0.5V14.7z M205.8,14.7v-0.5h-0.5v0.5
		H205.8z M205.8,26.6h4.1v-1.1h-4.1V26.6z M210.4,26v-5.5h-1.1V26H210.4z M209.8,21.1h1.5V20h-1.5V21.1z M210.7,20.6V26h1.1v-5.5
		H210.7z M211.3,26.6h4.1v-1.1h-4.1V26.6z M215.9,26V14.7h-1.1V26H215.9z M215.3,14.1h-4.1v1.1h4.1V14.1z M210.7,14.7v5.1h1.1v-5.1
		H210.7z M211.3,19.3h-1.5v1.1h1.5V19.3z M210.4,19.8v-5.1h-1.1v5.1H210.4z M209.8,14.1h-4.1v1.1h4.1V14.1z M205.2,14.7V26h1.1V14.7
		H205.2z M217.3,26h-0.5v0.5h0.5V26z M226,26v0.5h0.5V26H226z M226,22h0.5v-0.5H226V22z M221.3,22h-0.5v0.5h0.5V22z M221.3,20.7
		v-0.5h-0.5v0.5H221.3z M225.1,20.7v0.5h0.5v-0.5H225.1z M225.1,20h0.5v-0.5h-0.5V20z M221.3,20h-0.5v0.5h0.5V20z M221.3,18.7v-0.5
		h-0.5v0.5H221.3z M226,18.7v0.5h0.5v-0.5H226z M226,14.7h0.5v-0.5H226V14.7z M217.3,14.7v-0.5h-0.5v0.5H217.3z M217.3,26.6h8.7
		v-1.1h-8.7V26.6z M226.5,26v-4h-1.1v4H226.5z M226,21.5h-4.7v1.1h4.7V21.5z M221.8,22v-1.3h-1.1V22H221.8z M221.3,21.2h3.8v-1.1
		h-3.8V21.2z M225.6,20.7V20h-1.1v0.7H225.6z M225.1,19.4h-3.8v1.1h3.8V19.4z M221.8,20v-1.3h-1.1V20H221.8z M221.3,19.2h4.7v-1.1
		h-4.7V19.2z M226.5,18.7v-4h-1.1v4H226.5z M226,14.1h-8.7v1.1h8.7V14.1z M216.7,14.7V26h1.1V14.7H216.7z M236,26l-0.5-0.1l-0.1,0.6
		h0.7V26z M263.4,26v0.5h0.7l-0.1-0.6L263.4,26z M258.8,2.5l0.5-0.1l-0.2-0.9l-0.7,0.5L258.8,2.5z M249.7,9.7l-0.3,0.4l0.3,0.3
		l0.3-0.3L249.7,9.7z M240.5,2.5l0.3-0.4l-0.7-0.5L240,2.4L240.5,2.5z M236,26.6h27.4v-1.1H236V26.6z M263.9,25.9l-4.5-23.6
		l-1.1,0.2l4.5,23.6L263.9,25.9z M258.5,2.1l-9.1,7.2l0.7,0.9l9.1-7.2L258.5,2.1z M250,9.2l-9.1-7.2l-0.7,0.9l9.1,7.2L250,9.2z
		 M240,2.4l-4.5,23.6l1.1,0.2L241,2.6L240,2.4z M276.1,27c7,0,12.2-5.2,12.2-12.3h-1.1c0,6.5-4.7,11.2-11.1,11.2V27z M288.3,14.7
		c0-7-5.2-12.3-12.3-12.3v1.1c6.4,0,11.2,4.7,11.2,11.2H288.3z M276.1,2.4c-7.1,0-12.3,5.2-12.3,12.3h1.1c0-6.4,4.7-11.2,11.2-11.2
		V2.4z M263.8,14.7c0,7.1,5.2,12.3,12.3,12.3v-1.1c-6.5,0-11.3-4.7-11.3-11.2H263.8z M309.1,3.3h0.5V2.8h-0.5V3.3z M300.9,3.3V2.8
		h-0.5v0.5H300.9z M300.9,18.1v0.5h0.5v-0.5H300.9z M298.5,18.1h-0.5v0.5h0.5V18.1z M298.5,3.3h0.5V2.8h-0.5V3.3z M290.2,3.3V2.8
		h-0.5v0.5H290.2z M299.7,26.9c2.4,0,4.3-0.5,5.7-1.3c1.4-0.8,2.4-1.9,3-3.2c1.2-2.4,1.2-5.4,1.2-7.3h-1.1c0,2,0,4.6-1.1,6.8
		c-0.5,1.1-1.4,2-2.6,2.7c-1.2,0.7-2.9,1.1-5.2,1.1V26.9z M309.7,15.2V3.3h-1.1v11.9H309.7z M309.1,2.8h-8.2v1.1h8.2V2.8z
		 M300.4,3.3v14.8h1.1V3.3H300.4z M300.9,17.6h-2.4v1.1h2.4V17.6z M299,18.1V3.3h-1.1v14.8H299z M298.5,2.8h-8.2v1.1h8.2V2.8z
		 M289.7,3.3v11.9h1.1V3.3H289.7z M289.7,15.2c0,1.9,0,4.8,1.2,7.3c0.6,1.2,1.6,2.4,3,3.2c1.4,0.8,3.3,1.3,5.7,1.3v-1.1
		c-2.3,0-4-0.4-5.2-1.1c-1.2-0.7-2-1.6-2.6-2.7c-1.1-2.2-1.1-4.8-1.1-6.8H289.7z M312.7,26h-0.5v0.5h0.5V26z M332.5,26v0.5h0.5V26
		H332.5z M332.5,3.3h0.5V2.8h-0.5V3.3z M324.4,3.3V2.8h-0.5v0.5H324.4z M324.4,14.3l-0.4,0.4l0.9,0.9v-1.3H324.4z M312.7,2.7
		l0.4-0.4l-0.9-0.9v1.3H312.7z M312.7,26.6h19.8v-1.1h-19.8V26.6z M333.1,26V3.3H332V26H333.1z M332.5,2.8h-8.1v1.1h8.1V2.8z
		 M323.9,3.3v11h1.1v-11H323.9z M324.8,13.9L313.1,2.4l-0.8,0.8L324,14.7L324.8,13.9z M312.2,2.7V26h1.1V2.7H312.2z M335.4,11.3
		h-0.5v0.5h0.5V11.3z M341.6,11.3h0.5v-0.5h-0.5V11.3z M341.6,26H341v0.5h0.5V26z M349.7,26v0.5h0.5V26H349.7z M349.7,11.3v-0.5
		h-0.5v0.5H349.7z M355.3,11.3v0.5h0.5v-0.5H355.3z M355.3,3.3h0.5V2.8h-0.5V3.3z M335.4,3.3V2.8h-0.5v0.5H335.4z M335.4,11.9h6.2
		v-1.1h-6.2V11.9z M341,11.3V26h1.1V11.3H341z M341.6,26.6h8.1v-1.1h-8.1V26.6z M350.2,26V11.3h-1.1V26H350.2z M349.7,11.9h5.6v-1.1
		h-5.6V11.9z M355.8,11.3v-8h-1.1v8H355.8z M355.3,2.8h-19.9v1.1h19.9V2.8z M334.8,3.3v8h1.1v-8H334.8z M353,26l-0.5-0.2l-0.4,0.8
		h0.9V26z M377.1,26v0.5h0.9l-0.4-0.8L377.1,26z M365.1,2.4l0.5-0.2l-0.5-0.9l-0.5,0.9L365.1,2.4z M353,26.6h24.1v-1.1H353V26.6z
		 M377.6,25.8l-12-23.7l-1,0.5l12,23.7L377.6,25.8z M364.6,2.1l-12,23.7l1,0.5l12-23.7L364.6,2.1z M379.2,26h-0.5v0.5h0.5V26z
		 M387.3,26v0.5h0.5V26H387.3z M387.3,3.3h0.5V2.8h-0.5V3.3z M379.2,3.3V2.8h-0.5v0.5H379.2z M379.2,26.6h8.1v-1.1h-8.1V26.6z
		 M387.9,26V3.3h-1.1V26H387.9z M387.3,2.8h-8.1v1.1h8.1V2.8z M378.7,3.3V26h1.1V3.3H378.7z M391.2,26h-0.5v0.5h0.5V26z M411,26v0.5
		h0.5V26H411z M411,3.3h0.5V2.8H411V3.3z M402.9,3.3V2.8h-0.5v0.5H402.9z M402.9,14.3l-0.4,0.4l0.9,0.9v-1.3H402.9z M391.2,2.7
		l0.4-0.4l-0.9-0.9v1.3H391.2z M391.2,26.6H411v-1.1h-19.8V26.6z M411.6,26V3.3h-1.1V26H411.6z M411,2.8h-8.1v1.1h8.1V2.8z
		 M402.4,3.3v11h1.1v-11H402.4z M403.3,13.9L391.6,2.4l-0.8,0.8l11.7,11.5L403.3,13.9z M390.7,2.7V26h1.1V2.7H390.7z"/>
	<path class="st0" d="M0.7,26H28L23.5,2.5l-9.1,7.2L5.2,2.5L0.7,26z M30.5,26h17.4v-8h-9.4v-2.7h7.6v-1.5h-7.6v-2.6h9.4v-8H30.5V26z
		 M49.6,26h24.1l-12-23.7L49.6,26z M75.7,26h5.2C83,26,93,26,93,14.6C93,3.3,82.3,3.3,79.6,3.3h-3.8V26z M106.4,26.4
		c6.7,0,11.7-5,11.7-11.8c0-6.7-5-11.7-11.7-11.7c-6.8,0-11.8,5-11.8,11.7C94.6,21.5,99.6,26.4,106.4,26.4z M126.1,27l6.1-9.6
		l6.1,9.6l7.8-23.7h-27.8L126.1,27z M144.3,26h2.1c6.4,0,10.4-2.7,12.6-8.8c1.3-3.7,2.2-6,4.8-6h0V3.3h-1.1c-5.4,0-8.2,2.4-10.3,7.6
		c-2.4,6-3.9,7.1-8.2,7.1V26z M173,26h4.1V14.7H173V26z M179,26h9.9V14.7h-4.1v5.5l-5.9-5.8V26z M194.4,18.7h3.1V26h4.1v-7.4h2.8v-4
		h-9.9V18.7z M205.8,26h4.1v-5.5h1.5V26h4.1V14.7h-4.1v5.1h-1.5v-5.1h-4.1V26z M217.3,26h8.7v-4h-4.7v-1.3h3.8V20h-3.8v-1.3h4.7v-4
		h-8.7V26z M236,26h27.4l-4.5-23.6l-9.1,7.2l-9.1-7.2L236,26z M276.1,26.4c6.7,0,11.7-5,11.7-11.8c0-6.7-5-11.7-11.7-11.7
		c-6.8,0-11.8,5-11.8,11.7C264.3,21.5,269.3,26.4,276.1,26.4z M299.7,26.4c9.4,0,9.4-7.3,9.4-11.2V3.3h-8.2v14.8h-2.4V3.3h-8.2v11.9
		C290.2,19.1,290.2,26.4,299.7,26.4z M312.7,26h19.8V3.3h-8.1v11L312.7,2.7V26z M335.4,11.3h6.2V26h8.1V11.3h5.6v-8h-19.9V11.3z
		 M353,26h24.1l-12-23.7L353,26z M379.2,26h8.1V3.3h-8.1V26z M391.2,26H411V3.3h-8.1v11L391.2,2.7V26z"/>
	<path class="st0" d="M1.7,24.9l-0.5-0.1L1,25.4h0.7V24.9z M29.1,24.9v0.5h0.7l-0.1-0.6L29.1,24.9z M24.5,1.3l0.5-0.1l-0.2-0.9
		l-0.7,0.5L24.5,1.3z M15.4,8.5l-0.3,0.4l0.3,0.3l0.3-0.3L15.4,8.5z M6.2,1.3l0.3-0.4L5.9,0.4L5.7,1.2L6.2,1.3z M1.7,25.4h27.4v-1.1
		H1.7V25.4z M29.6,24.8L25.1,1.2L24,1.4L28.5,25L29.6,24.8z M24.2,0.9l-9.1,7.2l0.7,0.9l9.1-7.2L24.2,0.9z M15.7,8.1L6.6,0.9
		L5.9,1.7l9.1,7.2L15.7,8.1z M5.7,1.2L1.2,24.8L2.2,25L6.8,1.4L5.7,1.2z M31.5,24.9H31v0.5h0.5V24.9z M48.9,24.9v0.5h0.5v-0.5H48.9z
		 M48.9,16.9h0.5v-0.5h-0.5V16.9z M39.5,16.9H39v0.5h0.5V16.9z M39.5,14.2v-0.5H39v0.5H39.5z M47.1,14.2v0.5h0.5v-0.5H47.1z
		 M47.1,12.7h0.5v-0.5h-0.5V12.7z M39.5,12.7H39v0.5h0.5V12.7z M39.5,10.1V9.6H39v0.5H39.5z M48.9,10.1v0.5h0.5v-0.5H48.9z
		 M48.9,2.2h0.5V1.6h-0.5V2.2z M31.5,2.2V1.6H31v0.5H31.5z M31.5,25.4h17.4v-1.1H31.5V25.4z M49.4,24.9v-8h-1.1v8H49.4z M48.9,16.4
		h-9.4v1.1h9.4V16.4z M40,16.9v-2.7H39v2.7H40z M39.5,14.7h7.6v-1.1h-7.6V14.7z M47.7,14.2v-1.5h-1.1v1.5H47.7z M47.1,12.2h-7.6v1.1
		h7.6V12.2z M40,12.7v-2.6H39v2.6H40z M39.5,10.7h9.4V9.6h-9.4V10.7z M49.4,10.1v-8h-1.1v8H49.4z M48.9,1.6H31.5v1.1h17.4V1.6z
		 M31,2.2v22.7h1.1V2.2H31z M50.6,24.9l-0.5-0.2l-0.4,0.8h0.9V24.9z M74.7,24.9v0.5h0.9l-0.4-0.8L74.7,24.9z M62.6,1.2l0.5-0.2
		L62.6,0l-0.5,0.9L62.6,1.2z M50.6,25.4h24.1v-1.1H50.6V25.4z M75.2,24.6l-12-23.7l-1,0.5l12,23.7L75.2,24.6z M62.2,0.9l-12,23.7
		l1,0.5l12-23.7L62.2,0.9z M76.8,24.9h-0.5v0.5h0.5V24.9z M76.8,2.2V1.6h-0.5v0.5H76.8z M76.8,25.4h5.2v-1.1h-5.2V25.4z M81.9,25.4
		c1.1,0,4.2,0,7.1-1.5c1.5-0.8,2.8-1.9,3.9-3.6c1-1.7,1.7-3.9,1.7-6.9h-1.1c0,2.8-0.6,4.8-1.5,6.3c-0.9,1.5-2.1,2.5-3.4,3.2
		c-2.6,1.4-5.5,1.4-6.6,1.4V25.4z M94.6,13.5c0-2.9-0.7-5.1-1.8-6.8c-1.1-1.7-2.6-2.8-4.2-3.5c-3.1-1.5-6.6-1.5-8-1.5v1.1
		c1.3,0,4.6,0,7.5,1.4c1.4,0.7,2.8,1.7,3.8,3.2c1,1.5,1.6,3.5,1.6,6.2H94.6z M80.6,1.6h-3.8v1.1h3.8V1.6z M76.2,2.2v22.7h1.1V2.2
		H76.2z M107.5,25.8c7,0,12.2-5.2,12.2-12.3h-1.1c0,6.5-4.7,11.2-11.1,11.2V25.8z M119.7,13.5c0-7-5.2-12.3-12.3-12.3v1.1
		c6.4,0,11.2,4.7,11.2,11.2H119.7z M107.4,1.2c-7.1,0-12.3,5.2-12.3,12.3h1.1c0-6.4,4.7-11.2,11.2-11.2V1.2z M95.1,13.5
		c0,7.1,5.2,12.3,12.3,12.3v-1.1c-6.5,0-11.3-4.7-11.3-11.2H95.1z M127.1,25.9l-0.5,0.2l0.4,1.1l0.6-1L127.1,25.9z M133.3,16.3
		l0.5-0.3l-0.5-0.7l-0.5,0.7L133.3,16.3z M139.4,25.9l-0.5,0.3l0.6,1l0.4-1.1L139.4,25.9z M147.2,2.2l0.5,0.2l0.2-0.7h-0.7V2.2z
		 M119.3,2.2V1.6h-0.7l0.2,0.7L119.3,2.2z M127.6,26.2l6.1-9.6l-0.9-0.6l-6.1,9.6L127.6,26.2z M132.8,16.6l6.1,9.6l0.9-0.6l-6.1-9.6
		L132.8,16.6z M139.9,26l7.8-23.7l-1-0.3l-7.8,23.7L139.9,26z M147.2,1.6h-27.8v1.1h27.8V1.6z M118.8,2.3l7.8,23.7l1-0.3L119.9,2
		L118.8,2.3z M145.4,24.9h-0.5v0.5h0.5V24.9z M160.1,16.1l0.5,0.2v0L160.1,16.1z M164.9,10.1v0.5h0.5v-0.5H164.9z M164.9,2.2h0.5
		V1.6h-0.5V2.2z M153.5,9.8l0.5,0.2v0L153.5,9.8z M145.4,16.9v-0.5h-0.5v0.5H145.4z M145.4,25.4h2.1v-1.1h-2.1V25.4z M147.5,25.4
		c3.3,0,6-0.7,8.2-2.2c2.2-1.5,3.8-3.8,5-6.9l-1-0.4c-1.1,3-2.6,5-4.6,6.4c-2,1.4-4.5,2-7.6,2V25.4z M160.6,16.3
		c0.7-1.9,1.2-3.3,1.9-4.2c0.3-0.5,0.7-0.8,1-1c0.4-0.2,0.8-0.3,1.4-0.3V9.6c-0.7,0-1.3,0.2-1.9,0.5c-0.5,0.3-1,0.8-1.4,1.4
		c-0.8,1.1-1.3,2.7-2,4.5L160.6,16.3z M164.9,10.7L164.9,10.7l0-1.1h0V10.7z M165.4,10.1V2.2h-1.1v7.9H165.4z M164.9,1.6h-1.1v1.1
		h1.1V1.6z M163.8,1.6c-2.8,0-4.9,0.6-6.7,1.9c-1.7,1.3-3,3.3-4.1,6l1,0.4c1-2.6,2.2-4.4,3.7-5.5c1.5-1.2,3.4-1.7,6-1.7V1.6z
		 M153,9.6c-1.2,3-2.1,4.7-3.2,5.6c-1.1,0.9-2.3,1.2-4.4,1.2v1.1c2.2,0,3.8-0.3,5.1-1.4c1.3-1.1,2.3-3,3.5-6L153,9.6z M144.8,16.9v8
		h1.1v-8H144.8z M174,24.9h-0.5v0.5h0.5V24.9z M178.1,24.9v0.5h0.5v-0.5H178.1z M178.1,13.5h0.5V13h-0.5V13.5z M174,13.5V13h-0.5
		v0.5H174z M174,25.4h4.1v-1.1H174V25.4z M178.6,24.9V13.5h-1.1v11.4H178.6z M178.1,13H174v1.1h4.1V13z M173.5,13.5v11.4h1.1V13.5
		H173.5z M180,24.9h-0.5v0.5h0.5V24.9z M190,24.9v0.5h0.5v-0.5H190z M190,13.5h0.5V13H190V13.5z M185.9,13.5V13h-0.5v0.5H185.9z
		 M185.9,19l-0.4,0.4l0.9,0.9V19H185.9z M180,13.2l0.4-0.4l-0.9-0.9v1.3H180z M180,25.4h9.9v-1.1H180V25.4z M190.5,24.9V13.5h-1.1
		v11.4H190.5z M190,13h-4.1v1.1h4.1V13z M185.4,13.5V19h1.1v-5.5H185.4z M186.3,18.6l-5.9-5.8l-0.8,0.8l5.9,5.8L186.3,18.6z
		 M179.5,13.2v11.6h1.1V13.2H179.5z M195.4,17.5h-0.5v0.5h0.5V17.5z M198.5,17.5h0.5V17h-0.5V17.5z M198.5,24.9H198v0.5h0.5V24.9z
		 M202.6,24.9v0.5h0.5v-0.5H202.6z M202.6,17.5V17H202v0.5H202.6z M205.4,17.5v0.5h0.5v-0.5H205.4z M205.4,13.5h0.5V13h-0.5V13.5z
		 M195.4,13.5V13h-0.5v0.5H195.4z M195.4,18.1h3.1V17h-3.1V18.1z M198,17.5v7.4h1.1v-7.4H198z M198.5,25.4h4.1v-1.1h-4.1V25.4z
		 M203.1,24.9v-7.4H202v7.4H203.1z M202.6,18.1h2.8V17h-2.8V18.1z M205.9,17.5v-4h-1.1v4H205.9z M205.4,13h-9.9v1.1h9.9V13z
		 M194.9,13.5v4h1.1v-4H194.9z M206.8,24.9h-0.5v0.5h0.5V24.9z M210.9,24.9v0.5h0.5v-0.5H210.9z M210.9,19.4v-0.5h-0.5v0.5H210.9z
		 M212.3,19.4h0.5v-0.5h-0.5V19.4z M212.3,24.9h-0.5v0.5h0.5V24.9z M216.4,24.9v0.5h0.5v-0.5H216.4z M216.4,13.5h0.5V13h-0.5V13.5z
		 M212.3,13.5V13h-0.5v0.5H212.3z M212.3,18.7v0.5h0.5v-0.5H212.3z M210.9,18.7h-0.5v0.5h0.5V18.7z M210.9,13.5h0.5V13h-0.5V13.5z
		 M206.8,13.5V13h-0.5v0.5H206.8z M206.8,25.4h4.1v-1.1h-4.1V25.4z M211.4,24.9v-5.5h-1.1v5.5H211.4z M210.9,19.9h1.5v-1.1h-1.5
		V19.9z M211.8,19.4v5.5h1.1v-5.5H211.8z M212.3,25.4h4.1v-1.1h-4.1V25.4z M216.9,24.9V13.5h-1.1v11.4H216.9z M216.4,13h-4.1v1.1
		h4.1V13z M211.8,13.5v5.1h1.1v-5.1H211.8z M212.3,18.1h-1.5v1.1h1.5V18.1z M211.4,18.7v-5.1h-1.1v5.1H211.4z M210.9,13h-4.1v1.1
		h4.1V13z M206.3,13.5v11.4h1.1V13.5H206.3z M218.3,24.9h-0.5v0.5h0.5V24.9z M227,24.9v0.5h0.5v-0.5H227z M227,20.9h0.5v-0.5H227
		V20.9z M222.3,20.9h-0.5v0.5h0.5V20.9z M222.3,19.5V19h-0.5v0.5H222.3z M226.1,19.5v0.5h0.5v-0.5H226.1z M226.1,18.8h0.5v-0.5h-0.5
		V18.8z M222.3,18.8h-0.5v0.5h0.5V18.8z M222.3,17.5V17h-0.5v0.5H222.3z M227,17.5v0.5h0.5v-0.5H227z M227,13.5h0.5V13H227V13.5z
		 M218.3,13.5V13h-0.5v0.5H218.3z M218.3,25.4h8.7v-1.1h-8.7V25.4z M227.5,24.9v-4h-1.1v4H227.5z M227,20.3h-4.7v1.1h4.7V20.3z
		 M222.9,20.9v-1.3h-1.1v1.3H222.9z M222.3,20.1h3.8V19h-3.8V20.1z M226.7,19.5v-0.7h-1.1v0.7H226.7z M226.1,18.3h-3.8v1.1h3.8V18.3
		z M222.9,18.8v-1.3h-1.1v1.3H222.9z M222.3,18.1h4.7V17h-4.7V18.1z M227.5,17.5v-4h-1.1v4H227.5z M227,13h-8.7v1.1h8.7V13z
		 M217.8,13.5v11.4h1.1V13.5H217.8z M237,24.9l-0.5-0.1l-0.1,0.6h0.7V24.9z M264.4,24.9v0.5h0.7l-0.1-0.6L264.4,24.9z M259.9,1.3
		l0.5-0.1l-0.2-0.9l-0.7,0.5L259.9,1.3z M250.7,8.5l-0.3,0.4l0.3,0.3l0.3-0.3L250.7,8.5z M241.6,1.3l0.3-0.4l-0.7-0.5L241,1.2
		L241.6,1.3z M237,25.4h27.4v-1.1H237V25.4z M264.9,24.8l-4.5-23.6l-1.1,0.2l4.5,23.6L264.9,24.8z M259.5,0.9l-9.1,7.2l0.7,0.9
		l9.1-7.2L259.5,0.9z M251,8.1l-9.1-7.2l-0.7,0.9l9.1,7.2L251,8.1z M241,1.2l-4.5,23.6l1.1,0.2l4.5-23.6L241,1.2z M277.2,25.8
		c7,0,12.2-5.2,12.2-12.3h-1.1c0,6.5-4.7,11.2-11.1,11.2V25.8z M289.4,13.5c0-7-5.2-12.3-12.3-12.3v1.1c6.4,0,11.2,4.7,11.2,11.2
		H289.4z M277.1,1.2c-7.1,0-12.3,5.2-12.3,12.3h1.1c0-6.4,4.7-11.2,11.2-11.2V1.2z M264.8,13.5c0,7.1,5.2,12.3,12.3,12.3v-1.1
		c-6.5,0-11.3-4.7-11.3-11.2H264.8z M310.2,2.2h0.5V1.6h-0.5V2.2z M302,2.2V1.6h-0.5v0.5H302z M302,17v0.5h0.5V17H302z M299.5,17
		H299v0.5h0.5V17z M299.5,2.2h0.5V1.6h-0.5V2.2z M291.3,2.2V1.6h-0.5v0.5H291.3z M300.8,25.8c2.4,0,4.3-0.5,5.7-1.3
		c1.4-0.8,2.4-1.9,3-3.2c1.2-2.4,1.2-5.4,1.2-7.3h-1.1c0,2,0,4.6-1.1,6.8c-0.5,1.1-1.4,2-2.6,2.7c-1.2,0.7-2.9,1.1-5.2,1.1V25.8z
		 M310.7,14.1V2.2h-1.1v11.9H310.7z M310.2,1.6H302v1.1h8.2V1.6z M301.4,2.2V17h1.1V2.2H301.4z M302,16.4h-2.4v1.1h2.4V16.4z
		 M300.1,17V2.2H299V17H300.1z M299.5,1.6h-8.2v1.1h8.2V1.6z M290.7,2.2v11.9h1.1V2.2H290.7z M290.7,14.1c0,1.9,0,4.8,1.2,7.3
		c0.6,1.2,1.6,2.4,3,3.2c1.4,0.8,3.3,1.3,5.7,1.3v-1.1c-2.3,0-4-0.4-5.2-1.1c-1.2-0.7-2-1.6-2.6-2.7c-1.1-2.2-1.1-4.8-1.1-6.8H290.7
		z M313.7,24.9h-0.5v0.5h0.5V24.9z M333.6,24.9v0.5h0.5v-0.5H333.6z M333.6,2.2h0.5V1.6h-0.5V2.2z M325.5,2.2V1.6h-0.5v0.5H325.5z
		 M325.5,13.1l-0.4,0.4l0.9,0.9v-1.3H325.5z M313.7,1.6l0.4-0.4l-0.9-0.9v1.3H313.7z M313.7,25.4h19.8v-1.1h-19.8V25.4z M334.1,24.9
		V2.2H333v22.7H334.1z M333.6,1.6h-8.1v1.1h8.1V1.6z M324.9,2.2v11h1.1v-11H324.9z M325.8,12.7L314.1,1.2L313.4,2l11.7,11.5
		L325.8,12.7z M313.2,1.6v23.3h1.1V1.6H313.2z M336.4,10.1h-0.5v0.5h0.5V10.1z M342.6,10.1h0.5V9.6h-0.5V10.1z M342.6,24.9h-0.5v0.5
		h0.5V24.9z M350.7,24.9v0.5h0.5v-0.5H350.7z M350.7,10.1V9.6h-0.5v0.5H350.7z M356.3,10.1v0.5h0.5v-0.5H356.3z M356.3,2.2h0.5V1.6
		h-0.5V2.2z M336.4,2.2V1.6h-0.5v0.5H336.4z M336.4,10.7h6.2V9.6h-6.2V10.7z M342.1,10.1v14.7h1.1V10.1H342.1z M342.6,25.4h8.1v-1.1
		h-8.1V25.4z M351.2,24.9V10.1h-1.1v14.7H351.2z M350.7,10.7h5.6V9.6h-5.6V10.7z M356.9,10.1v-8h-1.1v8H356.9z M356.3,1.6h-19.9v1.1
		h19.9V1.6z M335.9,2.2v8h1.1v-8H335.9z M354.1,24.9l-0.5-0.2l-0.4,0.8h0.9V24.9z M378.2,24.9v0.5h0.9l-0.4-0.8L378.2,24.9z
		 M366.1,1.2l0.5-0.2L366.1,0l-0.5,0.9L366.1,1.2z M354.1,25.4h24.1v-1.1h-24.1V25.4z M378.6,24.6l-12-23.7l-1,0.5l12,23.7
		L378.6,24.6z M365.6,0.9l-12,23.7l1,0.5l12-23.7L365.6,0.9z M380.3,24.9h-0.5v0.5h0.5V24.9z M388.4,24.9v0.5h0.5v-0.5H388.4z
		 M388.4,2.2h0.5V1.6h-0.5V2.2z M380.3,2.2V1.6h-0.5v0.5H380.3z M380.3,25.4h8.1v-1.1h-8.1V25.4z M388.9,24.9V2.2h-1.1v22.7H388.9z
		 M388.4,1.6h-8.1v1.1h8.1V1.6z M379.7,2.2v22.7h1.1V2.2H379.7z M392.3,24.9h-0.5v0.5h0.5V24.9z M412.1,24.9v0.5h0.5v-0.5H412.1z
		 M412.1,2.2h0.5V1.6h-0.5V2.2z M404,2.2V1.6h-0.5v0.5H404z M404,13.1l-0.4,0.4l0.9,0.9v-1.3H404z M392.3,1.6l0.4-0.4l-0.9-0.9v1.3
		H392.3z M392.3,25.4h19.8v-1.1h-19.8V25.4z M412.6,24.9V2.2h-1.1v22.7H412.6z M412.1,1.6H404v1.1h8.1V1.6z M403.4,2.2v11h1.1v-11
		H403.4z M404.4,12.7L392.7,1.2L391.9,2l11.7,11.5L404.4,12.7z M391.7,1.6v23.3h1.1V1.6H391.7z"/>
	<path class="st1" d="M1.7,24.9h27.4L24.5,1.3l-9.1,7.2L6.2,1.3L1.7,24.9z M31.5,24.9h17.4v-8h-9.4v-2.7h7.6v-1.5h-7.6v-2.6h9.4v-8
		H31.5V24.9z M50.6,24.9h24.1l-12-23.7L50.6,24.9z M76.8,24.9h5.2c2.1,0,12.1,0,12.1-11.4C94,2.2,83.3,2.2,80.6,2.2h-3.8V24.9z
		 M107.5,25.3c6.7,0,11.7-5,11.7-11.8c0-6.7-5-11.7-11.7-11.7c-6.8,0-11.8,5-11.8,11.7C95.7,20.3,100.6,25.3,107.5,25.3z
		 M127.1,25.9l6.1-9.6l6.1,9.6l7.8-23.7h-27.8L127.1,25.9z M145.4,24.9h2.1c6.4,0,10.4-2.7,12.6-8.8c1.3-3.7,2.2-6,4.8-6h0V2.2h-1.1
		c-5.4,0-8.2,2.4-10.3,7.6c-2.4,6-3.9,7.1-8.2,7.1V24.9z M174,24.9h4.1V13.5H174V24.9z M180,24.9h9.9V13.5h-4.1V19l-5.9-5.8V24.9z
		 M195.4,17.5h3.1v7.4h4.1v-7.4h2.8v-4h-9.9V17.5z M206.8,24.9h4.1v-5.5h1.5v5.5h4.1V13.5h-4.1v5.1h-1.5v-5.1h-4.1V24.9z
		 M218.3,24.9h8.7v-4h-4.7v-1.3h3.8v-0.7h-3.8v-1.3h4.7v-4h-8.7V24.9z M237,24.9h27.4l-4.5-23.6l-9.1,7.2l-9.1-7.2L237,24.9z
		 M277.2,25.3c6.7,0,11.7-5,11.7-11.8c0-6.7-5-11.7-11.7-11.7c-6.8,0-11.8,5-11.8,11.7C265.3,20.3,270.3,25.3,277.2,25.3z
		 M300.8,25.2c9.4,0,9.4-7.3,9.4-11.2V2.2H302V17h-2.4V2.2h-8.2v11.9C291.3,17.9,291.3,25.2,300.8,25.2z M313.7,24.9h19.8V2.2h-8.1
		v11L313.7,1.6V24.9z M336.4,10.1h6.2v14.7h8.1V10.1h5.6v-8h-19.9V10.1z M354.1,24.9h24.1l-12-23.7L354.1,24.9z M380.3,24.9h8.1V2.2
		h-8.1V24.9z M392.3,24.9h19.8V2.2H404v11L392.3,1.6V24.9z"/>
</g>
</svg>
