<svg width="435" height="27" viewBox="0 0 435 27" fill="none" xmlns="http://www.w3.org/2000/svg">
<g filter="url(#filter0_d_2401_4581)">
<path d="M1.76331 24H29.1411L24.5998 0.44989L15.4522 7.61873L6.30465 0.44989L1.76331 24ZM31.5747 24H48.9292V16.0202H39.5545V13.3278H47.1775V11.8357H39.5545V9.27307H48.9292V1.29328H31.5747V24ZM50.6664 24H74.7355L62.7009 0.320137L50.6664 24ZM76.8425 24H82.0001C84.141 24 94.0996 24 94.0996 12.5818C94.0996 1.29328 83.3625 1.29328 80.6702 1.29328H76.8425V24ZM107.535 24.3893C114.25 24.3893 119.213 19.4262 119.213 12.6142C119.213 5.86706 114.25 0.904024 107.503 0.904024C100.691 0.904024 95.7275 5.86706 95.7275 12.6142C95.7275 19.4262 100.691 24.3893 107.535 24.3893ZM127.196 25.0056L133.327 15.4039L139.458 25.0056L147.243 1.29328H119.411L127.196 25.0056ZM145.435 24H147.544C153.902 24 157.957 21.2752 160.162 15.2093C161.492 11.5437 162.401 9.24063 164.931 9.24063H164.963V1.29328H163.86C158.508 1.29328 155.686 3.66127 153.61 8.88381C151.209 14.9173 149.717 16.0202 145.435 16.0202V24ZM174.102 24H178.157V12.6466H174.102V24ZM180.105 24H190.015V12.6466H185.961V18.1287L180.105 12.3547V24ZM195.505 16.6365H198.586V24H202.641V16.6365H205.447V12.6466H195.505V16.6365ZM206.873 24H210.928V18.5342H212.388V24H216.443V12.6466H212.388V17.7881H210.928V12.6466H206.873V24ZM218.388 24H227.065V20.0101H222.378V18.6639H226.19V17.9178H222.378V16.6365H227.065V12.6466H218.388V24ZM237.083 24H264.46L259.919 0.44989L250.771 7.61873L241.624 0.44989L237.083 24ZM277.218 24.3893C283.932 24.3893 288.895 19.4262 288.895 12.6142C288.895 5.86706 283.932 0.904024 277.185 0.904024C270.373 0.904024 265.41 5.86706 265.41 12.6142C265.41 19.4262 270.373 24.3893 277.218 24.3893ZM300.814 24.3568C310.253 24.3568 310.253 17.0582 310.253 13.1981V1.29328H302.014V16.0851H299.581V1.29328H291.342V13.1981C291.342 17.0582 291.342 24.3568 300.814 24.3568ZM313.809 24H333.629V1.29328H325.519V12.2574L313.809 0.709394V24ZM336.498 9.27307H342.661V24H350.77V9.27307H356.382V1.29328H336.498V9.27307ZM354.156 24H378.226L366.191 0.320137L354.156 24ZM380.333 24H388.442V1.29328H380.333V24ZM392.338 24H412.158V1.29328H404.049V12.2574L392.338 0.709394V24ZM415.157 24H417.265C423.623 24 427.678 21.2752 429.884 15.2093C431.214 11.5437 432.122 9.24063 434.652 9.24063H434.685V1.29328H433.582C428.23 1.29328 425.407 3.66127 423.331 8.88381C420.931 14.9173 419.439 16.0202 415.157 16.0202V24Z" fill="#D9674F"/>
<path d="M1.76331 24L1.23245 23.8976L1.10845 24.5406H1.76331V24ZM29.1411 24V24.5406H29.796L29.672 23.8976L29.1411 24ZM24.5998 0.44989L25.1306 0.347521L24.963 -0.521659L24.2663 0.0243593L24.5998 0.44989ZM15.4522 7.61873L15.1187 8.04426L15.4522 8.3056L15.7857 8.04426L15.4522 7.61873ZM6.30465 0.44989L6.63813 0.0243593L5.9414 -0.521659L5.77379 0.347521L6.30465 0.44989ZM1.76331 24.5406H29.1411V23.4594H1.76331V24.5406ZM29.672 23.8976L25.1306 0.347521L24.0689 0.552259L28.6103 24.1024L29.672 23.8976ZM24.2663 0.0243593L15.1187 7.19319L15.7857 8.04426L24.9333 0.875421L24.2663 0.0243593ZM15.7857 7.19319L6.63813 0.0243593L5.97117 0.875421L15.1187 8.04426L15.7857 7.19319ZM5.77379 0.347521L1.23245 23.8976L2.29416 24.1024L6.83551 0.552259L5.77379 0.347521ZM31.5747 24H31.0341V24.5406H31.5747V24ZM48.9292 24V24.5406H49.4698V24H48.9292ZM48.9292 16.0202H49.4698V15.4796H48.9292V16.0202ZM39.5545 16.0202H39.0139V16.5608H39.5545V16.0202ZM39.5545 13.3278V12.7872H39.0139V13.3278H39.5545ZM47.1775 13.3278V13.8685H47.7181V13.3278H47.1775ZM47.1775 11.8357H47.7181V11.2951H47.1775V11.8357ZM39.5545 11.8357H39.0139V12.3763H39.5545V11.8357ZM39.5545 9.27307V8.73243H39.0139V9.27307H39.5545ZM48.9292 9.27307V9.81371H49.4698V9.27307H48.9292ZM48.9292 1.29328H49.4698V0.752645H48.9292V1.29328ZM31.5747 1.29328V0.752645H31.0341V1.29328H31.5747ZM31.5747 24.5406H48.9292V23.4594H31.5747V24.5406ZM49.4698 24V16.0202H48.3885V24H49.4698ZM48.9292 15.4796H39.5545V16.5608H48.9292V15.4796ZM40.0952 16.0202V13.3278H39.0139V16.0202H40.0952ZM39.5545 13.8685H47.1775V12.7872H39.5545V13.8685ZM47.7181 13.3278V11.8357H46.6369V13.3278H47.7181ZM47.1775 11.2951H39.5545V12.3763H47.1775V11.2951ZM40.0952 11.8357V9.27307H39.0139V11.8357H40.0952ZM39.5545 9.81371H48.9292V8.73243H39.5545V9.81371ZM49.4698 9.27307V1.29328H48.3885V9.27307H49.4698ZM48.9292 0.752645H31.5747V1.83392H48.9292V0.752645ZM31.0341 1.29328V24H32.1154V1.29328H31.0341ZM50.6664 24L50.1844 23.7551L49.7852 24.5406H50.6664V24ZM74.7355 24V24.5406H75.6167L75.2175 23.7551L74.7355 24ZM62.7009 0.320137L63.1829 0.0751933L62.7009 -0.873147L62.219 0.0751933L62.7009 0.320137ZM50.6664 24.5406H74.7355V23.4594H50.6664V24.5406ZM75.2175 23.7551L63.1829 0.0751933L62.219 0.565081L74.2535 24.2449L75.2175 23.7551ZM62.219 0.0751933L50.1844 23.7551L51.1483 24.2449L63.1829 0.565081L62.219 0.0751933ZM76.8425 24H76.3018V24.5406H76.8425V24ZM76.8425 1.29328V0.752645H76.3018V1.29328H76.8425ZM76.8425 24.5406H82.0001V23.4594H76.8425V24.5406ZM82.0001 24.5406C83.0726 24.5406 86.2167 24.546 89.1012 23.0528C90.5536 22.301 91.9465 21.1666 92.9732 19.4619C93.9996 17.7577 94.6402 15.5165 94.6402 12.5818H93.5589C93.5589 15.3561 92.9547 17.3968 92.047 18.904C91.1395 20.4107 89.909 21.4171 88.6042 22.0926C85.9741 23.454 83.0685 23.4594 82.0001 23.4594V24.5406ZM94.6402 12.5818C94.6402 9.67086 93.9468 7.44679 92.8309 5.75762C91.7162 4.07016 90.2039 2.95284 88.6233 2.21451C85.4822 0.747257 82.0137 0.752645 80.6702 0.752645V1.83392C82.019 1.83392 85.2652 1.8393 88.1657 3.19417C89.6059 3.8669 90.9461 4.86617 91.9287 6.3536C92.9102 7.83931 93.5589 9.84842 93.5589 12.5818H94.6402ZM80.6702 0.752645H76.8425V1.83392H80.6702V0.752645ZM76.3018 1.29328V24H77.3831V1.29328H76.3018ZM107.535 24.9299C114.551 24.9299 119.753 19.7218 119.753 12.6142H118.672C118.672 19.1306 113.948 23.8486 107.535 23.8486V24.9299ZM119.753 12.6142C119.753 5.56848 114.548 0.363388 107.503 0.363388V1.44466C113.951 1.44466 118.672 6.16565 118.672 12.6142H119.753ZM107.503 0.363388C100.394 0.363388 95.1869 5.5665 95.1869 12.6142H96.2682C96.2682 6.16763 100.987 1.44466 107.503 1.44466V0.363388ZM95.1869 12.6142C95.1869 19.7258 100.393 24.9299 107.535 24.9299V23.8486C100.988 23.8486 96.2682 19.1266 96.2682 12.6142H95.1869ZM127.196 25.0056L126.683 25.1742L127.038 26.2576L127.652 25.2965L127.196 25.0056ZM133.327 15.4039L133.783 15.1129L133.327 14.3993L132.872 15.1129L133.327 15.4039ZM139.458 25.0056L139.002 25.2965L139.616 26.2576L139.972 25.1742L139.458 25.0056ZM147.243 1.29328L147.757 1.46192L147.99 0.752645H147.243V1.29328ZM119.411 1.29328V0.752645H118.665L118.898 1.46192L119.411 1.29328ZM127.652 25.2965L133.783 15.6948L132.872 15.1129L126.741 24.7146L127.652 25.2965ZM132.872 15.6948L139.002 25.2965L139.914 24.7146L133.783 15.1129L132.872 15.6948ZM139.972 25.1742L147.757 1.46192L146.73 1.12464L138.944 24.8369L139.972 25.1742ZM147.243 0.752645H119.411V1.83392H147.243V0.752645ZM118.898 1.46192L126.683 25.1742L127.71 24.8369L119.925 1.12464L118.898 1.46192ZM145.435 24H144.895V24.5406H145.435V24ZM160.162 15.2093L160.671 15.394L160.671 15.3937L160.162 15.2093ZM164.963 9.24063V9.78127H165.504V9.24063H164.963ZM164.963 1.29328H165.504V0.752645H164.963V1.29328ZM153.61 8.88381L154.112 9.08367L154.112 9.08352L153.61 8.88381ZM145.435 16.0202V15.4796H144.895V16.0202H145.435ZM145.435 24.5406H147.544V23.4594H145.435V24.5406ZM147.544 24.5406C150.8 24.5406 153.519 23.8424 155.717 22.3242C157.916 20.8054 159.54 18.5033 160.671 15.394L159.654 15.0245C158.579 17.9811 157.072 20.0744 155.103 21.4345C153.133 22.7952 150.646 23.4594 147.544 23.4594V24.5406ZM160.671 15.3937C161.343 13.541 161.88 12.1217 162.542 11.1563C162.867 10.6835 163.205 10.3451 163.581 10.1231C163.951 9.90388 164.386 9.78127 164.931 9.78127V8.7C164.211 8.7 163.583 8.86527 163.03 9.19247C162.482 9.5168 162.036 9.98325 161.651 10.5445C160.894 11.647 160.312 13.212 159.654 15.0249L160.671 15.3937ZM164.931 9.78127H164.963V8.7H164.931V9.78127ZM165.504 9.24063V1.29328H164.423V9.24063H165.504ZM164.963 0.752645H163.86V1.83392H164.963V0.752645ZM163.86 0.752645C161.101 0.752645 158.932 1.36455 157.179 2.70003C155.435 4.02831 154.164 6.02716 153.108 8.6841L154.112 9.08352C155.132 6.51792 156.31 4.7215 157.834 3.56016C159.349 2.40601 161.267 1.83392 163.86 1.83392V0.752645ZM153.108 8.68396C151.906 11.7039 150.973 13.3694 149.878 14.3031C148.819 15.205 147.539 15.4796 145.435 15.4796V16.5608C147.613 16.5608 149.22 16.284 150.579 15.126C151.9 13.9999 152.913 12.0972 154.112 9.08367L153.108 8.68396ZM144.895 16.0202V24H145.976V16.0202H144.895ZM174.102 24H173.562V24.5406H174.102V24ZM178.157 24V24.5406H178.698V24H178.157ZM178.157 12.6466H178.698V12.106H178.157V12.6466ZM174.102 12.6466V12.106H173.562V12.6466H174.102ZM174.102 24.5406H178.157V23.4594H174.102V24.5406ZM178.698 24V12.6466H177.617V24H178.698ZM178.157 12.106H174.102V13.1873H178.157V12.106ZM173.562 12.6466V24H174.643V12.6466H173.562ZM180.105 24H179.565V24.5406H180.105V24ZM190.015 24V24.5406H190.556V24H190.015ZM190.015 12.6466H190.556V12.106H190.015V12.6466ZM185.961 12.6466V12.106H185.42V12.6466H185.961ZM185.961 18.1287L185.581 18.5136L186.501 19.4211V18.1287H185.961ZM180.105 12.3547L180.485 11.9698L179.565 11.0623V12.3547H180.105ZM180.105 24.5406H190.015V23.4594H180.105V24.5406ZM190.556 24V12.6466H189.475V24H190.556ZM190.015 12.106H185.961V13.1873H190.015V12.106ZM185.42 12.6466V18.1287H186.501V12.6466H185.42ZM186.34 17.7437L180.485 11.9698L179.726 12.7396L185.581 18.5136L186.34 17.7437ZM179.565 12.3547V24H180.646V12.3547H179.565ZM195.505 16.6365H194.964V17.1772H195.505V16.6365ZM198.586 16.6365H199.127V16.0959H198.586V16.6365ZM198.586 24H198.046V24.5406H198.586V24ZM202.641 24V24.5406H203.182V24H202.641ZM202.641 16.6365V16.0959H202.1V16.6365H202.641ZM205.447 16.6365V17.1772H205.987V16.6365H205.447ZM205.447 12.6466H205.987V12.106H205.447V12.6466ZM195.505 12.6466V12.106H194.964V12.6466H195.505ZM195.505 17.1772H198.586V16.0959H195.505V17.1772ZM198.046 16.6365V24H199.127V16.6365H198.046ZM198.586 24.5406H202.641V23.4594H198.586V24.5406ZM203.182 24V16.6365H202.1V24H203.182ZM202.641 17.1772H205.447V16.0959H202.641V17.1772ZM205.987 16.6365V12.6466H204.906V16.6365H205.987ZM205.447 12.106H195.505V13.1873H205.447V12.106ZM194.964 12.6466V16.6365H196.045V12.6466H194.964ZM206.873 24H206.333V24.5406H206.873V24ZM210.928 24V24.5406H211.469V24H210.928ZM210.928 18.5342V17.9935H210.387V18.5342H210.928ZM212.388 18.5342H212.928V17.9935H212.388V18.5342ZM212.388 24H211.847V24.5406H212.388V24ZM216.443 24V24.5406H216.983V24H216.443ZM216.443 12.6466H216.983V12.106H216.443V12.6466ZM212.388 12.6466V12.106H211.847V12.6466H212.388ZM212.388 17.7881V18.3287H212.928V17.7881H212.388ZM210.928 17.7881H210.387V18.3287H210.928V17.7881ZM210.928 12.6466H211.469V12.106H210.928V12.6466ZM206.873 12.6466V12.106H206.333V12.6466H206.873ZM206.873 24.5406H210.928V23.4594H206.873V24.5406ZM211.469 24V18.5342H210.387V24H211.469ZM210.928 19.0748H212.388V17.9935H210.928V19.0748ZM211.847 18.5342V24H212.928V18.5342H211.847ZM212.388 24.5406H216.443V23.4594H212.388V24.5406ZM216.983 24V12.6466H215.902V24H216.983ZM216.443 12.106H212.388V13.1873H216.443V12.106ZM211.847 12.6466V17.7881H212.928V12.6466H211.847ZM212.388 17.2475H210.928V18.3287H212.388V17.2475ZM211.469 17.7881V12.6466H210.387V17.7881H211.469ZM210.928 12.106H206.873V13.1873H210.928V12.106ZM206.333 12.6466V24H207.414V12.6466H206.333ZM218.388 24H217.848V24.5406H218.388V24ZM227.065 24V24.5406H227.606V24H227.065ZM227.065 20.0101H227.606V19.4695H227.065V20.0101ZM222.378 20.0101H221.837V20.5507H222.378V20.0101ZM222.378 18.6639V18.1233H221.837V18.6639H222.378ZM226.19 18.6639V19.2046H226.73V18.6639H226.19ZM226.19 17.9178H226.73V17.3772H226.19V17.9178ZM222.378 17.9178H221.837V18.4585H222.378V17.9178ZM222.378 16.6365V16.0959H221.837V16.6365H222.378ZM227.065 16.6365V17.1772H227.606V16.6365H227.065ZM227.065 12.6466H227.606V12.106H227.065V12.6466ZM218.388 12.6466V12.106H217.848V12.6466H218.388ZM218.388 24.5406H227.065V23.4594H218.388V24.5406ZM227.606 24V20.0101H226.525V24H227.606ZM227.065 19.4695H222.378V20.5507H227.065V19.4695ZM222.919 20.0101V18.6639H221.837V20.0101H222.919ZM222.378 19.2046H226.19V18.1233H222.378V19.2046ZM226.73 18.6639V17.9178H225.649V18.6639H226.73ZM226.19 17.3772H222.378V18.4585H226.19V17.3772ZM222.919 17.9178V16.6365H221.837V17.9178H222.919ZM222.378 17.1772H227.065V16.0959H222.378V17.1772ZM227.606 16.6365V12.6466H226.525V16.6365H227.606ZM227.065 12.106H218.388V13.1873H227.065V12.106ZM217.848 12.6466V24H218.929V12.6466H217.848ZM237.083 24L236.552 23.8976L236.428 24.5406H237.083V24ZM264.46 24V24.5406H265.115L264.991 23.8976L264.46 24ZM259.919 0.44989L260.45 0.347521L260.282 -0.521659L259.586 0.0243593L259.919 0.44989ZM250.771 7.61873L250.438 8.04426L250.771 8.3056L251.105 8.04426L250.771 7.61873ZM241.624 0.44989L241.957 0.0243593L241.261 -0.521659L241.093 0.347521L241.624 0.44989ZM237.083 24.5406H264.46V23.4594H237.083V24.5406ZM264.991 23.8976L260.45 0.347521L259.388 0.552259L263.93 24.1024L264.991 23.8976ZM259.586 0.0243593L250.438 7.19319L251.105 8.04426L260.253 0.875421L259.586 0.0243593ZM251.105 7.19319L241.957 0.0243593L241.29 0.875421L250.438 8.04426L251.105 7.19319ZM241.093 0.347521L236.552 23.8976L237.613 24.1024L242.155 0.552259L241.093 0.347521ZM277.218 24.9299C284.234 24.9299 289.436 19.7218 289.436 12.6142H288.355C288.355 19.1306 283.631 23.8486 277.218 23.8486V24.9299ZM289.436 12.6142C289.436 5.56848 284.231 0.363388 277.185 0.363388V1.44466C283.634 1.44466 288.355 6.16565 288.355 12.6142H289.436ZM277.185 0.363388C270.077 0.363388 264.87 5.5665 264.87 12.6142H265.951C265.951 6.16763 270.67 1.44466 277.185 1.44466V0.363388ZM264.87 12.6142C264.87 19.7258 270.076 24.9299 277.218 24.9299V23.8486C270.671 23.8486 265.951 19.1266 265.951 12.6142H264.87ZM310.253 1.29328H310.794V0.752645H310.253V1.29328ZM302.014 1.29328V0.752645H301.473V1.29328H302.014ZM302.014 16.0851V16.6257H302.555V16.0851H302.014ZM299.581 16.0851H299.04V16.6257H299.581V16.0851ZM299.581 1.29328H300.122V0.752645H299.581V1.29328ZM291.342 1.29328V0.752645H290.801V1.29328H291.342ZM300.814 24.8975C303.242 24.8975 305.109 24.4279 306.535 23.6276C307.967 22.8249 308.922 21.7079 309.555 20.4712C310.803 18.0296 310.794 15.1064 310.794 13.1981H309.713C309.713 15.1499 309.703 17.8061 308.592 19.9788C308.044 21.0493 307.23 21.9982 306.006 22.6846C304.778 23.3734 303.105 23.8162 300.814 23.8162V24.8975ZM310.794 13.1981V1.29328H309.713V13.1981H310.794ZM310.253 0.752645H302.014V1.83392H310.253V0.752645ZM301.473 1.29328V16.0851H302.555V1.29328H301.473ZM302.014 15.5445H299.581V16.6257H302.014V15.5445ZM300.122 16.0851V1.29328H299.04V16.0851H300.122ZM299.581 0.752645H291.342V1.83392H299.581V0.752645ZM290.801 1.29328V13.1981H291.882V1.29328H290.801ZM290.801 13.1981C290.801 15.1064 290.792 18.0299 292.045 20.4718C292.68 21.7088 293.638 22.8255 295.074 23.628C296.505 24.428 298.377 24.8975 300.814 24.8975V23.8162C298.514 23.8162 296.834 23.3733 295.602 22.6842C294.373 21.9976 293.556 21.0484 293.007 19.9782C291.892 17.8057 291.882 15.1499 291.882 13.1981H290.801ZM313.809 24H313.268V24.5406H313.809V24ZM333.629 24V24.5406H334.169V24H333.629ZM333.629 1.29328H334.169V0.752645H333.629V1.29328ZM325.519 1.29328V0.752645H324.979V1.29328H325.519ZM325.519 12.2574L325.14 12.6423L326.06 13.5498V12.2574H325.519ZM313.809 0.709394L314.189 0.32445L313.268 -0.583053V0.709394H313.809ZM313.809 24.5406H333.629V23.4594H313.809V24.5406ZM334.169 24V1.29328H333.088V24H334.169ZM333.629 0.752645H325.519V1.83392H333.629V0.752645ZM324.979 1.29328V12.2574H326.06V1.29328H324.979ZM325.899 11.8724L314.189 0.32445L313.429 1.09434L325.14 12.6423L325.899 11.8724ZM313.268 0.709394V24H314.35V0.709394H313.268ZM336.498 9.27307H335.957V9.81371H336.498V9.27307ZM342.661 9.27307H343.202V8.73243H342.661V9.27307ZM342.661 24H342.12V24.5406H342.661V24ZM350.77 24V24.5406H351.311V24H350.77ZM350.77 9.27307V8.73243H350.23V9.27307H350.77ZM356.382 9.27307V9.81371H356.923V9.27307H356.382ZM356.382 1.29328H356.923V0.752645H356.382V1.29328ZM336.498 1.29328V0.752645H335.957V1.29328H336.498ZM336.498 9.81371H342.661V8.73243H336.498V9.81371ZM342.12 9.27307V24H343.202V9.27307H342.12ZM342.661 24.5406H350.77V23.4594H342.661V24.5406ZM351.311 24V9.27307H350.23V24H351.311ZM350.77 9.81371H356.382V8.73243H350.77V9.81371ZM356.923 9.27307V1.29328H355.842V9.27307H356.923ZM356.382 0.752645H336.498V1.83392H356.382V0.752645ZM335.957 1.29328V9.27307H337.038V1.29328H335.957ZM354.156 24L353.675 23.7551L353.275 24.5406H354.156V24ZM378.226 24V24.5406H379.107L378.708 23.7551L378.226 24ZM366.191 0.320137L366.673 0.0751933L366.191 -0.873147L365.709 0.0751933L366.191 0.320137ZM354.156 24.5406H378.226V23.4594H354.156V24.5406ZM378.708 23.7551L366.673 0.0751933L365.709 0.565081L377.744 24.2449L378.708 23.7551ZM365.709 0.0751933L353.675 23.7551L354.638 24.2449L366.673 0.565081L365.709 0.0751933ZM380.333 24H379.792V24.5406H380.333V24ZM388.442 24V24.5406H388.983V24H388.442ZM388.442 1.29328H388.983V0.752645H388.442V1.29328ZM380.333 1.29328V0.752645H379.792V1.29328H380.333ZM380.333 24.5406H388.442V23.4594H380.333V24.5406ZM388.983 24V1.29328H387.901V24H388.983ZM388.442 0.752645H380.333V1.83392H388.442V0.752645ZM379.792 1.29328V24H380.873V1.29328H379.792ZM392.338 24H391.798V24.5406H392.338V24ZM412.158 24V24.5406H412.699V24H412.158ZM412.158 1.29328H412.699V0.752645H412.158V1.29328ZM404.049 1.29328V0.752645H403.508V1.29328H404.049ZM404.049 12.2574L403.669 12.6423L404.589 13.5498V12.2574H404.049ZM392.338 0.709394L392.718 0.32445L391.798 -0.583053V0.709394H392.338ZM392.338 24.5406H412.158V23.4594H392.338V24.5406ZM412.699 24V1.29328H411.618V24H412.699ZM412.158 0.752645H404.049V1.83392H412.158V0.752645ZM403.508 1.29328V12.2574H404.589V1.29328H403.508ZM404.428 11.8724L392.718 0.32445L391.959 1.09434L403.669 12.6423L404.428 11.8724ZM391.798 0.709394V24H392.879V0.709394H391.798ZM415.157 24H414.616V24.5406H415.157V24ZM429.884 15.2093L430.392 15.394L430.392 15.3937L429.884 15.2093ZM434.685 9.24063V9.78127H435.225V9.24063H434.685ZM434.685 1.29328H435.225V0.752645H434.685V1.29328ZM423.331 8.88381L423.834 9.08367L423.834 9.08352L423.331 8.88381ZM415.157 16.0202V15.4796H414.616V16.0202H415.157ZM415.157 24.5406H417.265V23.4594H415.157V24.5406ZM417.265 24.5406C420.521 24.5406 423.241 23.8424 425.439 22.3242C427.638 20.8054 429.261 18.5033 430.392 15.394L429.376 15.0245C428.301 17.9811 426.794 20.0744 424.824 21.4345C422.854 22.7952 420.367 23.4594 417.265 23.4594V24.5406ZM430.392 15.3937C431.064 13.541 431.601 12.1217 432.264 11.1563C432.588 10.6835 432.927 10.3451 433.302 10.1231C433.673 9.90388 434.107 9.78127 434.652 9.78127V8.7C433.933 8.7 433.305 8.86527 432.752 9.19247C432.203 9.5168 431.757 9.98325 431.372 10.5445C430.616 11.647 430.033 13.212 429.376 15.0249L430.392 15.3937ZM434.652 9.78127H434.685V8.7H434.652V9.78127ZM435.225 9.24063V1.29328H434.144V9.24063H435.225ZM434.685 0.752645H433.582V1.83392H434.685V0.752645ZM433.582 0.752645C430.823 0.752645 428.653 1.36455 426.9 2.70003C425.157 4.02831 423.885 6.02716 422.829 8.6841L423.834 9.08352C424.854 6.51792 426.031 4.7215 427.556 3.56016C429.071 2.40601 430.988 1.83392 433.582 1.83392V0.752645ZM422.829 8.68396C421.628 11.7039 420.694 13.3694 419.599 14.3031C418.541 15.205 417.261 15.4796 415.157 15.4796V16.5608C417.335 16.5608 418.942 16.284 420.3 15.126C421.622 13.9999 422.635 12.0972 423.834 9.08367L422.829 8.68396ZM414.616 16.0202V24H415.698V16.0202H414.616Z" fill="#3B3539"/>
</g>
<defs>
<filter id="filter0_d_2401_4581" x="0.682033" y="0.320312" width="434.003" height="25.7663" filterUnits="userSpaceOnUse" color-interpolation-filters="sRGB">
<feFlood flood-opacity="0" result="BackgroundImageFix"/>
<feColorMatrix in="SourceAlpha" type="matrix" values="0 0 0 0 0 0 0 0 0 0 0 0 0 0 0 0 0 0 127 0" result="hardAlpha"/>
<feOffset dx="-1.08127" dy="1.08127"/>
<feComposite in2="hardAlpha" operator="out"/>
<feColorMatrix type="matrix" values="0 0 0 0 0.231373 0 0 0 0 0.207843 0 0 0 0 0.223529 0 0 0 1 0"/>
<feBlend mode="normal" in2="BackgroundImageFix" result="effect1_dropShadow_2401_4581"/>
<feBlend mode="normal" in="SourceGraphic" in2="effect1_dropShadow_2401_4581" result="shape"/>
</filter>
</defs>
</svg>
