<?xml version="1.0" encoding="utf-8"?>
<!-- Generator: Adobe Illustrator 27.2.0, SVG Export Plug-In . SVG Version: 6.00 Build 0)  -->
<svg version="1.1" id="Layer_1" xmlns="http://www.w3.org/2000/svg" xmlns:xlink="http://www.w3.org/1999/xlink" x="0px" y="0px"
	 viewBox="0 0 436.4 28.9" style="enable-background:new 0 0 436.4 28.9;" xml:space="preserve">
<style type="text/css">
	.st0{fill:#3B3539;}
	.st1{fill:#D9674F;}
</style>
<g>
	<g>
		<path shape-rendering="auto" class="st0" d="M106.5,27.2c-7,0-12.1-5.2-12.1-12.4c0-2.7,0.8-4.6,1-5.2c0.5-1.2,1.2-2.9,2.9-4.1c0.4-0.3,0.8-0.5,1.3-0.7
			c1-1,4.1-3.4,8.5-3.4c1.9,0,5.5,0.4,8.4,3.3c2.1,2.1,3.4,4.9,3.5,8c0.1,1.7-0.1,3.4-0.7,5c-0.9,2.5-2.5,4.2-3.7,5.2
			C113.4,25.7,110.1,27.2,106.5,27.2z"/>
		<path shape-rendering="auto" class="st0" d="M108.1,1.7c1.4,0,5.2,0.3,8.3,3.2c2,2,3.3,4.7,3.4,7.9c0.1,1.1,0,2.9-0.7,4.9c-1,2.7-2.8,4.3-3.6,5.1
			c-2.1,2.6-5.3,4.2-9,4.2c-6.9,0-11.8-5.2-11.8-12.2c0-2.5,0.7-4.3,1-5.1c0.5-1.3,1.2-2.9,2.8-4c0.5-0.3,0.9-0.5,1.2-0.6
			C100.4,4.4,103.4,1.7,108.1,1.7L108.1,1.7 M108.1,1.2L108.1,1.2c-4.4,0-7.5,2.3-8.7,3.4C99,4.8,98.6,5,98.2,5.2
			c-1.8,1.2-2.5,2.9-3,4.2c-0.3,0.6-1.1,2.6-1.1,5.3c0,7.4,5.2,12.7,12.3,12.7c3.7,0,7-1.5,9.3-4.4c1.2-1,2.8-2.7,3.7-5.2
			c0.6-1.6,0.9-3.4,0.7-5.1c-0.1-3.2-1.4-6.1-3.6-8.2C113.7,1.7,110.1,1.2,108.1,1.2L108.1,1.2z"/>
	</g>
	<g>
		<polygon class="st0" points="0.3,26.8 5,1.7 6.2,2.8 6.6,0.8 16,8.1 25.2,0.8 30,24.9 30,24.9 30,25.1 28,25.1 28.3,26.8 		"/>
		<path shape-rendering="auto" class="st0" d="M25.1,1.2c1.5,7.8,3.1,15.6,4.6,23.5l0,0v0.1h-2l0.3,1.8H0.6L5.1,2.2l1.1,0.9l0.1,0.1l0.4-2l9.2,7.2
			C19,6,22,3.6,25.1,1.2 M20.6,4.1L16,7.7L6.4,0.2L6.1,2.3l-1.4-1L0,27.1h28.6l-0.3-1.8h2l-0.1-0.7l-2.1-10.5L25.4,0.3L20.6,4.1z"/>
	</g>
	<g>
		<path shape-rendering="auto" class="st0" d="M80.9,26.8h-5.4V2.9h1.7v-1h4.3c0.3,0,0.7,0,1.2,0c0,0,1.1,0.1,2.1,0.2c4.2,0.6,6.8,2.8,7.3,3.4l0,0
			c3.1,3.3,2.9,7.4,2.9,7.4s0,0.1,0,0.2v0.2c0,2.5-0.5,4.6-1.4,6.4c-0.1,0.4-0.3,0.8-0.5,1.1c-1.9,3.7-6.1,4.9-7.5,5.3
			c-1.4,0.4-2.8,0.6-4.2,0.6C81.3,26.9,81,26.9,80.9,26.8z"/>
		<path shape-rendering="auto" class="st0" d="M81.4,2.1c0.3,0,0.7,0,1.2,0c0,0,1.1,0.1,2.1,0.2c4.7,0.7,7.2,3.3,7.2,3.3c3,3.2,2.8,7.1,2.8,7.2
			c0,0,0,0.1,0,0.3c0,0.1,0,0.2,0,0.2c0,2.7-0.5,4.7-1.4,6.2c-0.1,0.3-0.2,0.7-0.5,1.2c-1.8,3.6-6,4.8-7.3,5.2
			c-1,0.3-2.4,0.6-4.2,0.6c-0.1,0-0.3,0-0.4,0h-5.2V3.2h1.7c0-0.1,0-1,0-1h3.8C81.3,2.1,81.3,2.1,81.4,2.1 M81.1,1.6
			c-1.6,0-3.8,0-3.8,0h-0.5v0.5v0.5h-1.2h-0.5v0.6v23.4v0.5h0.5h5.2c0.1,0,0.3,0,0.4,0c1.5,0,2.9-0.2,4.3-0.6s5.7-1.6,7.6-5.4
			c0.2-0.4,0.4-0.8,0.5-1.2c1-1.8,1.4-3.9,1.4-6.4c0-0.1,0-0.1,0-0.2v-0.1c0-0.1,0-0.2,0-0.2c0-0.1,0.2-4.3-2.9-7.6l0,0
			c-0.3-0.3-2.9-2.9-7.5-3.5C83.6,1.8,82.7,1.6,81.1,1.6z"/>
	</g>
	<g>
		<path shape-rendering="auto" class="st0" d="M299.8,27.2c-3.2,0-5.6-0.8-7.2-2.5c-2.6-2.7-2.5-7-2.5-9.2V2.9h1.7v-1h8.7v14.4h0.8V2.9h1.1v-1h8.7V14
			c0,2.8,0,7.4-3.5,9.8C306.1,26,303.4,27.2,299.8,27.2z"/>
		<path shape-rendering="auto" class="st0" d="M310.8,2.1v11.3l0,0v0.5c0,2.8,0,7.3-3.4,9.6c-1.3,1.9-3.6,3.3-7.7,3.3c-9.5,0-9.5-7.5-9.4-11.5V3.2h1.7v-1
			h8.2v14.4l0,0c0.4,0,0.8,0,1.3,0c0-4.5,0-8.9,0-13.4c0.4,0,0.8,0,1.1,0v-1h8.2 M311.3,1.6h-0.5h-8.2h-0.5v0.5v0.5h-0.6H301v0.6
			v12.9h-0.3V2.2V1.6h-0.5H292h-0.5v0.5v0.5h-1.2h-0.5v0.6v12.3c-0.1,2.3-0.2,6.6,2.5,9.4c1.7,1.7,4.1,2.6,7.4,2.6
			c3.7,0,6.4-1.2,8-3.5c3.5-2.5,3.5-7.2,3.5-10v-0.5V2.1V1.6H311.3z"/>
	</g>
	<g>
		<polygon class="st0" points="379,26.8 379,2.9 380.7,2.9 380.7,1.9 389.3,1.9 389.3,25.1 387.6,25.1 387.6,26.8 		"/>
		<path shape-rendering="auto" class="st0" d="M389,2.1v22.6l0,0l0,0v0.1h-1.7v1.8h-8.1V3.1h1.7v-1L389,2.1 M389.5,1.6H389h-8.1h-0.5v0.5v0.5h-1.2h-0.5v0.5
			v23.4V27h0.5h8.1h0.5v-0.5v-1.3h1.2h0.5v-0.5v-0.1V2.1V1.6L389.5,1.6z"/>
	</g>
	<g>
		<polygon class="st0" points="391,26.8 391,1.9 392.7,3.6 392.7,0.9 402.7,10.9 402.7,2.9 404.4,2.9 404.4,1.9 413,1.9 413,25.1 
			411.3,25.1 411.3,26.8 		"/>
		<path shape-rendering="auto" class="st0" d="M392.9,1.5c3.3,3.3,6.7,6.7,10,10c0-2.8,0-5.6,0-8.4h1.7v-1h8.1v22.6l0,0v0.1H411v1.8h-19.8V2.5l1.7,1.7
			L392.9,1.5 M392.4,0.3v1.2V3l-0.8-0.8l-0.9-0.9v1.2v24.1v0.5h0.5H411h0.5v-0.5v-1.3h1.2h0.5v-0.5v-0.1V2.1V1.6h-0.5h-8.1h-0.5v0.5
			v0.5h-1.2h-0.5v0.5v3.6v3.6l-2.5-2.5l-6.6-6.6L392.4,0.3L392.4,0.3z"/>
	</g>
	<g>
		<polygon class="st0" points="341.3,26.7 341.3,11.6 335.1,11.6 335.1,2.8 336.8,2.8 336.8,1.8 357.2,1.8 357.2,10.3 355.5,10.3 
			355.5,11.6 351.6,11.6 351.6,25 349.9,25 349.9,26.7 		"/>
		<path shape-rendering="auto" class="st0" d="M356.9,2v7.4V10h-1.7v1.3h-3.9v13.3l0,0v0.1h-1.7v1.8h-8V11.3h-6.2V3h1.7V2L356.9,2 M356.9,9.4L356.9,9.4
			L356.9,9.4 M357.4,1.5h-0.5H337h-0.5V2v0.5h-1.2h-0.5V3v8.3v0.5h0.5h5.7v14.7V27h0.5h8.1h0.5v-0.5v-1.3h1.2h0.5v-0.5v-0.1V11.8
			h3.4h0.5v-0.5v-0.8h1.2h0.5V10V9.4V2L357.4,1.5L357.4,1.5z"/>
	</g>
	<g>
		<polygon class="st0" points="312.4,26.8 312.4,1.9 314.1,3.6 314.1,0.9 324.1,11 324.1,2.9 325.8,2.9 325.8,1.9 334.4,1.9 
			334.4,25.1 332.7,25.1 332.7,26.8 		"/>
		<path shape-rendering="auto" class="st0" d="M314.3,1.5c3.4,3.3,6.7,6.7,10.1,10c0-2.8,0-5.6,0-8.4h1.7v-1h8.1v22.6l0,0v0.1h-1.7v1.8h-19.8V2.5l1.7,1.7
			V1.5 M313.8,0.3v1.2V3L313,2.2l-0.9-0.9v1.2v24.1v0.5h0.5h19.8h0.5v-0.5v-1.3h1.2h0.5v-0.5v-0.1V2.1V1.6h-0.5H326h-0.5v0.5v0.5
			h-1.2h-0.5v0.5v7.2l-2.5-2.5l-6.6-6.6L313.8,0.3L313.8,0.3z"/>
	</g>
	<g>
		<polygon class="st0" points="235.6,26.8 240.5,1.7 241.7,2.8 242.1,0.8 251.4,8.1 260.6,0.8 265.3,25.1 263.3,25.1 263.6,26.8 		
			"/>
		<path shape-rendering="auto" class="st0" d="M260.5,1.2c1.5,7.9,3,15.7,4.5,23.6h-2l0.3,1.8h-27.4l4.7-24.4l1.1,0.9l0.1,0.1l0.4-2l9.1,7.2L260.5,1.2
			 M260.8,0.3l-0.6,0.5l-8.8,7l-8.8-7L242,0.3l-0.2,0.8l-0.2,1.2L241,1.8l-0.6-0.5l-0.2,0.8l-4.7,24.4l-0.1,0.6h0.6h27.4h0.6
			l-0.1-0.6l-0.2-1.2h1.4h0.6l-0.1-0.6l-2.2-11.8l-2.2-11.8L260.8,0.3L260.8,0.3z"/>
	</g>
	<g>
		<path shape-rendering="auto" class="st0" d="M276.2,27.2c-3.1,0-6-1-8.1-3c-3.5-3.1-3.9-7.3-3.9-9.5c0-3.5,1.5-6.2,2.7-7.9c0.6-0.8,1.4-1.5,2.4-2
			c1.1-1,4.1-3.4,8.6-3.4c3.3,0,6.3,1.2,8.4,3.3s3.3,4.9,3.5,8c0.1,1.7-0.1,3.4-0.7,5c-0.9,2.5-2.5,4.2-3.7,5.2
			C283.1,25.7,279.9,27.2,276.2,27.2z"/>
		<path shape-rendering="auto" class="st0" d="M277.8,1.7L277.8,1.7c1.1,0,5,0.1,8.3,3.2c2,2,3.3,4.7,3.4,7.9c0.1,1.1,0,2.9-0.7,4.9c-1,2.7-2.8,4.3-3.6,5.1
			c-2.1,2.6-5.3,4.2-9,4.2c-3.2,0-5.9-1.1-8-2.9c-3.9-3.5-3.8-8.4-3.8-9.3c0-3.5,1.5-6.2,2.7-7.7c0.6-0.8,1.4-1.5,2.3-2
			C270,4.5,273.1,1.7,277.8,1.7 M277.8,1.2c-4.5,0-7.6,2.4-8.8,3.5c-1,0.5-1.8,1.2-2.4,2.1c-1.2,1.7-2.7,4.4-2.8,8
			c0,2.2,0.5,6.5,4,9.6c2.2,2,5.1,3,8.3,3c3.7,0,7-1.5,9.3-4.4c1.2-1,2.8-2.7,3.7-5.2c0.6-1.6,0.9-3.4,0.7-5.1
			c-0.1-3.2-1.4-6.1-3.6-8.2C284.2,2.4,281.2,1.2,277.8,1.2L277.8,1.2L277.8,1.2z"/>
	</g>
	<g>
		<polygon class="st0" points="30.2,26.8 30.2,2.8 31.9,2.8 31.9,1.8 49.8,1.8 49.8,10.3 48.1,10.3 48.1,11.5 40.4,11.5 40.4,12.4 
			48,12.4 48,14.4 46.3,14.4 46.3,15.4 40.4,15.4 40.4,16.2 49.8,16.2 49.8,25.1 48.1,25.1 48.1,26.8 		"/>
		<path shape-rendering="auto" class="st0" d="M49.5,2v1c0,2.1,0,4.3,0,6.4V10h-1.7v1.3h-7.7c0,0.5,0,0.9,0,1.4c2.5,0,5.1,0,7.6,0c0,0.5,0,1,0,1.5
			c-0.6,0-1.1,0-1.7,0c0,0.3,0,0.6,0,0.9c-2,0-4,0-5.9,0c0,0.4,0,0.9,0,1.3h9.4v0.4c0,2.7,0,5.3,0,8h-1.7v1.8H30.5V3h1.7V2H49.5
			 M50,1.5h-0.5H32.1h-0.5V2v0.5h-1.2h-0.5V3v23.5V27h0.5h17.4h0.5v-0.5v-1.3h1.2H50v-0.5v-8v-0.4v-0.5h-0.5h-8.9v-0.3H46h0.6V15
			v-0.4h1.2h0.5v-0.4v-1.5v-0.5h-0.5h-7.2v-0.4h7.2h0.5v-0.5v-0.8h1.2H50V10V9.4V3V2V1.5L50,1.5z"/>
	</g>
	<g>
		<polygon class="st0" points="48.8,26.8 61.3,1.5 61.9,2.6 62.2,2.8 63.3,0.6 75.7,25.1 72.9,25.1 73.7,26.8 		"/>
		<path shape-rendering="auto" class="st0" d="M63.3,1.1l12,23.7h-2.8l0.9,1.8H49.2L61.3,2.1l0.4,0.7c0.2,0.1,0.4,0.2,0.6,0.3L63.3,1.1 M63.2,0.2l-1.1,2.2
			l-0.8-1.3L48.8,26.3L48.4,27h0.8h24.1H74l-0.8-1.7H76L63.6,0.9L63.2,0.2z"/>
	</g>
	<g>
		<polygon class="st0" points="132.6,18.8 127.7,26.4 127.5,25.8 126,28.2 118,2.9 119.9,2.9 119.6,1.9 148.1,1.9 140,26.4 
			139.3,25.3 138.4,28.2 		"/>
		<path shape-rendering="auto" class="st0" d="M147.8,2.1l-6.5,19.8c-0.4,1.3-0.9,2.6-1.3,3.9l-0.7-1.1l-0.9,2.9l-5.7-9.3l-4.8,7.5l-0.2-0.6l-1.5,2.4
			l-7.9-24.4h2l-0.3-1h27.8 M148.4,1.6h-0.7h-27.8h-0.7l0.2,0.7l0.1,0.4h-1.3h-0.6l0.2,0.7l7.8,24.5l0.3,1l0.6-0.9l0.9-1.5l0.2,0.6
			l0.6-0.9l4.4-6.9l5.3,8.7l0.6,0.9l0.3-1l0.6-1.9l0.2,0.2l0.6,0.9l0.3-1l1-3.1l0.3-0.8l6.5-19.8L148.4,1.6L148.4,1.6z"/>
	</g>
	<g>
		<path shape-rendering="auto" class="st0" d="M414.5,26.8v-9.1h1.7v-1.1h0.5c2.2,0,3.8-0.5,4.6-1.6c0.4-0.5,0.8-1.6,1.7-3.7l0.1-0.2
			c0.2-0.4,0.4-0.9,0.7-1.6c0.5-1.1,0.7-1.6,0.9-2.1c0.4-0.7,0.9-1.5,1.8-2.4c0.7-0.6,1.4-1.1,2.3-1.5c1-0.7,2.1-1.1,3.3-1.4
			c0.8-0.2,1.6-0.3,2.4-0.3c0.2,0,0.3,0,0.5,0h1.3v8.8H436c-0.3,0-0.6,0-0.8,0.1c-0.1,0-0.2,0.1-0.3,0.1v1.6h-0.2
			c-0.5,0-0.9,0.1-1.2,0.3c-0.5,0.3-0.7,0.7-1,1c-0.1,0.2-0.3,0.5-0.9,1.9c-0.2,0.5-0.3,0.7-0.4,0.9s-0.1,0.3-0.2,0.6
			c-0.4,1-0.9,1.8-0.9,1.9c0,0-0.5,0.9-1.1,1.7c-0.6,0.8-1.8,2.4-3.7,3.7c-2.3,1.5-5,2.3-8.3,2.3L414.5,26.8L414.5,26.8z"/>
		<path shape-rendering="auto" class="st0" d="M434.4,2.1c0.2,0,0.3,0,0.5,0h1.1v0.7V10v0.4c0,0,0,0-0.1,0c-0.2,0-0.5,0-0.8,0.1c-0.2,0-0.3,0.1-0.5,0.2
			c0,0.5,0,1,0,1.5c-0.3,0-0.8,0.1-1.4,0.4c-0.5,0.3-0.8,0.7-1.1,1.1c-0.2,0.2-0.3,0.5-0.9,2c-0.4,1-0.4,1-0.6,1.5
			c-0.4,1-0.9,1.8-0.9,1.8s-0.5,0.8-1.1,1.7c-0.6,0.8-1.8,2.4-3.7,3.6c-2.9,2-6,2.2-8.1,2.2c-0.7,0-1.5,0-2.2,0c0-2.9,0-5.7,0-8.6
			c0.6,0,1.1,0,1.7,0c0-0.4,0-0.7,0-1.1c0.1,0,0.2,0,0.2,0c3.2,0,4.4-1.1,4.8-1.7c0.4-0.5,0.9-1.6,1.7-3.7c0.2-0.4,0.8-0.9,1.1-1.8
			c0.5-1.1,0.7-1.5,0.9-1.9c0.4-0.8,0.6-1.7,1.4-2.4c0.8-0.8,1.6-1.2,2.2-1.5c0.7-0.5,1.8-1.1,3.2-1.4C433,2.2,433.8,2.1,434.4,2.1
			 M434.4,1.6c-0.8,0-1.7,0.1-2.5,0.3c-1.1,0.3-2.3,0.8-3.3,1.5c-0.8,0.4-1.6,0.9-2.3,1.6c-0.9,0.9-1.5,1.8-1.9,2.4
			c-0.2,0.4-0.5,1-1,2.1c-0.3,0.7-0.5,1.2-0.7,1.6l-0.1,0.2c-0.8,2-1.3,3.1-1.7,3.6c-0.8,1-2.3,1.5-4.4,1.5h-0.2h-0.5v0.5v0.4v0.2
			h-0.3h-0.8h-0.5V18v7.5v1.1v0.5h0.5h1.1h1.1c3.3,0,6.1-0.8,8.4-2.3c1.9-1.3,3.2-2.9,3.8-3.7c0.6-0.8,1.1-1.7,1.1-1.7l0,0
			c0.2-0.3,0.6-1.1,0.9-1.9c0.1-0.3,0.2-0.4,0.2-0.6c0.1-0.2,0.2-0.4,0.4-0.9c0.6-1.5,0.7-1.7,0.8-1.9c0.2-0.4,0.5-0.7,0.9-1
			c0.3-0.2,0.7-0.3,1.1-0.3h0.5v-0.6V11h0.1c0.2-0.1,0.5-0.1,0.7-0.1h0.1h0.5v-0.5V10V2.8V2.1V1.6h-0.5h-1.1
			C434.8,1.6,434.6,1.6,434.4,1.6L434.4,1.6z"/>
	</g>
	<g>
		<polygon class="st0" points="172.7,26.8 172.7,14.6 174.4,14.6 174.4,13.2 179,13.2 179,25.1 177.3,25.1 177.3,26.8 		"/>
		<path shape-rendering="auto" class="st0" d="M178.7,13.4v1c0,3.4,0,6.8,0,10.2v0.1H177v1.8h-4.1V14.8h1.7v-1.4L178.7,13.4 M179.2,12.9h-0.5h-4.1h-0.5v0.5
			v0.9h-1.2h-0.5v0.5v11.8v0.5h0.5h4.1h0.5v-0.5v-1.3h1.2h0.5v-0.5v-0.1V14.5v-1V12.9L179.2,12.9z"/>
	</g>
	<g>
		<polygon class="st0" points="178.6,26.8 178.6,13.9 180.3,15.6 180.3,12.5 184.5,16.8 184.5,14.6 184.8,14.6 186.2,14.6 
			186.2,13.2 190.8,13.2 190.8,25.1 189.1,25.1 189.1,26.8 		"/>
		<path shape-rendering="auto" class="st0" d="M180.5,13.1c1.4,1.4,2.8,2.8,4.2,4.2c0-0.8,0-1.7,0-2.5h1.7v-1.4h4.1c0,3.8,0,7.6,0,11.4h-1.7v1.8h-9.9h-0.1
			V14.5l1.7,1.7V13.1 M180,11.9v1.2v1.8l-0.8-0.8l-0.9-0.9v1.2v12.1V27h0.5h0.1h9.9h0.5v-0.5v-1.3h1.2h0.5v-0.5V13.4v-0.5h-0.5h-4.1
			h-0.5v0.5v0.9h-1.2h-0.5v0.5v1.3l-1.3-1.3l-2.1-2.1L180,11.9L180,11.9z"/>
	</g>
	<g>
		<polygon class="st0" points="197.2,26.8 197.2,19.2 194.2,19.2 194.2,14.6 195.9,14.6 195.9,13.2 206.3,13.2 206.3,14.6 
			207.2,14.6 207.2,13.2 211.8,13.2 211.8,14.6 212.8,14.6 212.8,13.2 217.4,13.2 217.4,25.1 215.7,25.1 215.7,26.8 211.1,26.8 
			211.1,25.1 210.1,25.1 210.1,26.8 205.5,26.8 205.5,17.7 205.3,17.7 205.3,19.2 203.5,19.2 203.5,25.1 201.8,25.1 201.8,26.8 		
			"/>
		<path shape-rendering="auto" class="st0" d="M217.1,13.4v11.4h-1.7v1.8h-4.1v-1.8h-1.5v1.8h-4.1v-9.2H205c0,0.5,0,1,0,1.5c-0.6,0-1.2,0-1.8,0v5.8v0.1
			h-1.6v1.8h-4.1V19h-3v-4.1h1.7l0,0v-1.4h9.9v1.4h1.4l0,0v-1.4h4.1v1.4h1.5v-1.4L217.1,13.4 M217.6,12.9h-0.5H213h-0.5v0.5v0.9H212
			v-0.9v-0.5h-0.5h-4.1h-0.5v0.5v0.9h-0.4v-0.9v-0.5H206h-9.9h-0.5v0.5v0.9h-1.2h-0.5v0.5v4.1v0.5h0.5h2.5v7.1V27h0.5h4.1h0.5v-0.5
			v-1.3h1.2h0.5v-0.5v-0.1v-5.3h0.4h0.9h0.2v7.1v0.5h0.5h4.1h0.5v-0.5v-1.3h0.5v1.3v0.5h0.5h4.1h0.5v-0.5v-1.3h1.2h0.5v-0.5V13.4
			V12.9L217.6,12.9z"/>
	</g>
	<g>
		<polygon class="st0" points="217,26.8 217,14.7 218.7,14.7 218.7,13.3 227.9,13.3 227.9,17.8 226.2,17.8 226.2,18.6 227,18.6 
			227,19.8 225.6,19.8 225.7,20.6 227.9,20.6 227.9,25.1 226.2,25.1 226.2,26.8 		"/>
		<path shape-rendering="auto" class="st0" d="M227.6,13.5c0,1.4,0,2.7,0,4.1c-0.6,0-1.1,0-1.7,0c0,0.4,0,0.9,0,1.3c0.3,0,0.5,0,0.8,0c0,0.2,0,0.5,0,0.7
			c-0.4,0-0.9,0-1.3,0c0,0.4,0,0.9,0,1.3c0.7,0,1.5,0,2.2,0c0,1.3,0,2.6,0,3.9h-1.7v1.8h-8.7V14.9h1.7v-1.4H227.6 M228.1,13h-0.5
			h-8.7h-0.5v0.5v0.9h-1.2h-0.5v0.5v11.7v0.5h0.5h8.7h0.5v-0.5v-1.3h1.2h0.5v-0.5v-2v-2v-0.5h-0.5h-1.7v-0.2V20h0.8h0.5v-0.5v-0.7
			v-0.5h-0.5h-0.3V18h1.2h0.5v-0.5v-2v-2V13L228.1,13z"/>
	</g>
	<g>
		<polygon class="st0" points="352.1,26.8 364.5,1.6 365.5,3.1 366.8,0.6 379.2,25.1 376.1,25.1 377,26.8 		"/>
		<path shape-rendering="auto" class="st0" d="M366.8,1.1l12,23.7h-3.1l0.9,1.8h-24.1l12.1-24.5c0.3,0.5,0.6,1,0.9,1.5L366.8,1.1 M365.5,2.6L365.5,2.6
			l-1-1.6l-12.9,26h25.8l-0.9-1.7h3.1L366.8,0.2"/>
	</g>
	<g>
		<path shape-rendering="auto" class="st0" d="M144.9,26.9v-9.1h1.7v-1.1h0.5c2.2,0,3.8-0.5,4.6-1.6c0.4-0.5,0.8-1.6,1.7-3.7l0.1-0.2
			c0.2-0.4,0.4-0.9,0.7-1.6c0.5-1.1,0.7-1.6,0.9-2.1c0.4-0.7,0.9-1.5,1.8-2.4c0.7-0.6,1.4-1.1,2.3-1.5c1-0.7,2.1-1.1,3.3-1.4
			c0.8-0.2,1.6-0.3,2.4-0.3c0.2,0,0.3,0,0.5,0h1.3v8.8h-0.3c-0.3,0-0.6,0-0.8,0.1c-0.1,0-0.2,0.1-0.3,0.1v1.6h-0.2
			c-0.5,0-0.9,0.1-1.2,0.3c-0.5,0.3-0.7,0.7-1,1c-0.1,0.2-0.3,0.5-0.9,1.9c-0.2,0.5-0.3,0.7-0.4,0.9c-0.1,0.2-0.1,0.3-0.2,0.6
			c-0.4,1-0.9,1.8-0.9,1.9c0,0-0.5,0.9-1.1,1.7c-0.6,0.8-1.8,2.4-3.7,3.7c-2.3,1.5-5,2.3-8.3,2.3L144.9,26.9L144.9,26.9z"/>
		<path shape-rendering="auto" class="st0" d="M164.9,2.2c0.2,0,0.3,0,0.5,0h1.1v0.7v7.2v0.4c0,0,0,0-0.1,0c-0.2,0-0.5,0-0.8,0.1c-0.2,0-0.3,0.1-0.5,0.2
			c0,0.5,0,1,0,1.5c-0.3,0-0.8,0.1-1.4,0.4c-0.5,0.3-0.8,0.7-1.1,1.1c-0.2,0.2-0.3,0.5-0.9,2c-0.4,1-0.4,1-0.6,1.5
			c-0.4,1-0.9,1.8-0.9,1.8s-0.5,0.8-1.1,1.7c-0.6,0.8-1.8,2.4-3.7,3.6c-2.9,2-6,2.2-8.1,2.2c-0.7,0-1.5,0-2.2,0c0-2.9,0-5.7,0-8.6
			c0.6,0,1.1,0,1.7,0c0-0.4,0-0.7,0-1.1c0.1,0,0.2,0,0.2,0c3.2,0,4.4-1.1,4.8-1.7c0.4-0.5,0.9-1.6,1.7-3.7c0.2-0.4,0.4-0.9,0.7-1.8
			c0.5-1.1,0.7-1.6,0.9-2c0.4-0.8,1-1.6,1.8-2.3c0.8-0.8,1.6-1.2,2.2-1.5c0.7-0.5,1.8-1.1,3.2-1.4C163.4,2.3,164.2,2.2,164.9,2.2
			 M164.9,1.7c-0.8,0-1.7,0.1-2.5,0.3c-1.2,0.3-2.3,0.8-3.4,1.5c-0.8,0.4-1.6,0.9-2.3,1.6c-0.9,0.9-1.5,1.8-1.9,2.4
			c-0.2,0.4-0.5,1-1,2.1c-0.3,0.7-0.5,1.2-0.7,1.6l-0.1,0.2c-0.8,2-1.3,3.1-1.7,3.6c-0.8,1-2.3,1.5-4.4,1.5h-0.2h-0.5V17v0.4v0.2
			h-0.3h-0.8h-0.5v0.5v7.5v1.1v0.5h0.5h1.1h1.1c3.3,0,6.1-0.8,8.4-2.3c1.9-1.3,3.2-2.9,3.8-3.7c0.6-0.8,1.1-1.7,1.1-1.7l0,0
			c0.2-0.3,0.6-1.1,0.9-1.9c0.1-0.3,0.2-0.4,0.2-0.6c0.1-0.2,0.2-0.4,0.4-0.9c0.6-1.5,0.7-1.7,0.8-1.9c0.2-0.4,0.5-0.7,0.9-1
			c0.3-0.2,0.7-0.3,1.1-0.3h0.5v-0.5v-1.2h0.1c0.2-0.1,0.5-0.1,0.7-0.1h0.1h0.5v-0.5v-0.5V2.9V2.2V1.7h-0.5h-1.1
			C165.2,1.7,165.1,1.7,164.9,1.7L164.9,1.7z"/>
	</g>
</g>
<g>
	<g>
		<polygon class="st1" points="2.3,24.9 29.7,24.9 25.1,1.3 16,8.5 6.8,1.3 		"/>
	</g>
	<g>
		<polygon class="st1" points="32.1,24.9 49.5,24.9 49.5,16.9 40.1,16.9 40.1,14.2 47.7,14.2 47.7,12.7 40.1,12.7 40.1,10.1 
			49.5,10.1 49.5,2.1 32.1,2.1 		"/>
	</g>
	<g>
		<polygon class="st1" points="51.2,24.9 75.3,24.9 63.3,1.2 		"/>
	</g>
	<g>
		<path shape-rendering="auto" class="st1" d="M77.4,24.9h5.2c2.1,0,12.1,0,12.1-11.4C94.6,2.2,83.9,2.2,81.2,2.2h-3.8C77.4,2.2,77.4,24.9,77.4,24.9z"/>
	</g>
	<g>
		<path shape-rendering="auto" class="st1" d="M108.1,25.3c6.7,0,11.7-5,11.7-11.8c0-6.7-5-11.7-11.7-11.7c-6.8,0-11.8,5-11.8,11.7
			C96.3,20.3,101.2,25.3,108.1,25.3z"/>
	</g>
	<g>
		<polygon class="st1" points="127.8,25.9 133.9,16.3 140,25.9 147.8,2.2 120,2.2 		"/>
	</g>
	<g>
		<path shape-rendering="auto" class="st1" d="M416.4,24.9c0.7,0,1.5,0,2.2,0c6.4,0,10.4-2.7,12.6-8.8c1.3-3.7,2.2-6,4.8-6V2.2h-1.1
			c-5.4,0-8.2,2.4-10.3,7.6c-2.4,6-3.9,7.1-8.2,7.1C416.4,19.6,416.4,22.3,416.4,24.9z"/>
	</g>
	<g>
		<path shape-rendering="auto" class="st1" d="M146.9,25c0.7,0,1.5,0,2.2,0c6.4,0,10.4-2.7,12.6-8.8c1.3-3.7,2.2-6,4.8-6V2.3h-1.1c-5.4,0-8.2,2.4-10.3,7.6
			c-2.4,6-3.9,7.1-8.2,7.1C146.9,19.7,146.9,22.3,146.9,25z"/>
	</g>
	<g>
		<rect x="174.6" y="13.5" class="st1" width="4.1" height="11.4"/>
	</g>
	<g>
		<polygon class="st1" points="180.6,24.9 190.5,24.9 190.5,13.5 186.4,13.5 186.4,19 180.5,13.2 180.5,24.9 		"/>
	</g>
	<g>
		<polygon class="st1" points="196,17.5 199.1,17.5 199.1,24.9 203.2,24.9 203.2,17.5 206,17.5 206,13.5 196.1,13.5 196.1,17.5 		
			"/>
	</g>
	<g>
		<polygon class="st1" points="207.4,24.9 211.5,24.9 211.5,19.4 213,19.4 213,24.9 217.1,24.9 217.1,13.5 213,13.5 213,18.6 
			211.5,18.6 211.5,13.5 207.4,13.5 		"/>
	</g>
	<g>
		<polygon class="st1" points="218.9,24.9 227.6,24.9 227.6,20.9 222.9,20.9 222.9,19.6 226.7,19.6 226.7,18.9 222.9,18.9 
			222.9,17.6 227.6,17.6 227.6,13.6 218.9,13.6 		"/>
	</g>
	<g>
		<polygon class="st1" points="237.6,24.9 265,24.9 260.5,1.3 251.4,8.5 242.3,1.3 		"/>
	</g>
	<g>
		<path shape-rendering="auto" class="st1" d="M277.8,25.3c6.7,0,11.7-5,11.7-11.8c0-6.7-5-11.7-11.7-11.7c-6.8,0-11.8,5-11.8,11.7
			C265.9,20.3,270.9,25.3,277.8,25.3z"/>
	</g>
	<g>
		<path shape-rendering="auto" class="st1" d="M301.4,25.2c9.4,0,9.4-7.3,9.4-11.2V2.2h-8.2V17h-2.4V2.2H292v11.9C291.9,17.9,291.9,25.2,301.4,25.2z"/>
	</g>
	<g>
		<polygon class="st1" points="314.3,24.9 334.1,24.9 334.1,2.2 326,2.2 326,13.2 314.3,1.6 		"/>
	</g>
	<g>
		<polygon class="st1" points="337,10.1 343.2,10.1 343.2,24.8 351.3,24.8 351.3,10.1 356.9,10.1 356.9,2.1 337,2.1 		"/>
	</g>
	<g>
		<polygon class="st1" points="354.7,24.9 378.8,24.9 366.8,1.2 		"/>
	</g>
	<g>
		<rect x="380.9" y="2.2" class="st1" width="8.1" height="22.7"/>
	</g>
	<g>
		<polygon class="st1" points="392.9,24.9 412.7,24.9 412.7,2.2 404.6,2.2 404.6,13.2 392.9,1.6 		"/>
	</g>
</g>
</svg>
