<svg width="39" height="39" viewBox="0 0 39 39" fill="none" xmlns="http://www.w3.org/2000/svg">
<path d="M38.7995 4.18807V34.2587C38.7995 36.5191 36.9697 38.3623 34.6959 38.3623H22.9771V25.3519H27.9149L28.8567 19.2301H22.9771V15.2611C22.9771 13.5793 23.7979 11.9513 26.4349 11.9513H29.1124V6.74441C29.1124 6.74441 26.6906 6.32733 24.3764 6.32733C19.5328 6.32733 16.371 9.26039 16.371 14.5749V19.2436H10.9892V25.3653H16.371V38.3758H4.63876C2.37841 38.3758 0.535156 36.546 0.535156 34.2722V4.18807C0.535156 1.91427 2.36496 0.0844727 4.63876 0.0844727H34.7094C36.9697 0.0844727 38.813 1.91427 38.813 4.18807H38.7995Z" fill="#ECDEC3"/>
</svg>
