<svg width="39" height="39" viewBox="0 0 39 39" fill="none" xmlns="http://www.w3.org/2000/svg">
<path d="M38.4649 4.18783V34.2585C38.4649 36.5188 36.6351 38.3621 34.3613 38.3621H4.29061C2.03027 38.3621 0.187012 36.5323 0.187012 34.2585V4.18783C0.187012 1.92749 2.01681 0.0842285 4.29061 0.0842285H34.3613C36.6216 0.0842285 38.4649 1.91403 38.4649 4.18783ZM32.9082 13.5925C32.8005 11.3994 32.3027 9.46196 30.7017 7.86089C29.1006 6.25981 27.1631 5.762 24.9835 5.65436C22.7232 5.53327 15.9691 5.53327 13.7087 5.65436C11.5291 5.762 9.59166 6.25981 7.99058 7.86089C6.3895 9.46196 5.89169 11.3994 5.78405 13.579C5.64951 15.8259 5.64951 22.5935 5.78405 24.8538C5.89169 27.0334 6.3895 28.9843 7.99058 30.572C9.59166 32.173 11.5291 32.6709 13.7087 32.7785C15.9691 32.913 22.7232 32.913 24.9835 32.7785C27.1766 32.6709 29.114 32.173 30.7017 30.572C32.3027 28.9709 32.8005 27.0334 32.9082 24.8538C33.0427 22.5935 33.0427 15.8394 32.9082 13.5925ZM29.9886 11.1572C30.7017 12.9601 30.5402 17.2252 30.5402 19.2164C30.5402 21.2077 30.7017 25.4862 29.9886 27.2756C29.5177 28.4596 28.5759 29.4014 27.3919 29.8723C25.589 30.5854 21.3239 30.424 19.3327 30.424C17.3414 30.424 13.0764 30.5854 11.2735 29.8723C10.0895 29.4014 9.14766 28.4596 8.67676 27.2756C7.96367 25.4727 8.12513 21.2077 8.12513 19.2164C8.12513 17.2252 7.96367 12.9467 8.67676 11.1572C9.14766 9.97323 10.0895 9.03142 11.2735 8.56052C13.0764 7.84743 17.3414 8.00889 19.3327 8.00889C21.3239 8.00889 25.589 7.84743 27.3919 8.56052C28.5759 9.03142 29.5177 9.97323 29.9886 11.1572ZM26.3424 19.2164C26.3424 17.9921 26.0195 16.7812 25.4006 15.7183C22.7097 11.0496 15.9691 11.0496 13.2647 15.7183C10.5604 20.387 13.9374 26.2262 19.3327 26.2262C23.2075 26.2262 26.3424 23.0913 26.3424 19.2164ZM23.8937 19.2164C23.8937 20.0237 23.6784 20.804 23.2883 21.4902C21.5392 24.5309 17.153 24.5309 15.3905 21.4902C13.6414 18.4495 15.8211 14.6554 19.3327 14.6554C21.8486 14.6554 23.8937 16.7004 23.8937 19.2164ZM26.6384 13.5521C27.5399 13.5521 28.2799 12.8121 28.2664 11.9107C28.2664 11.6281 28.1857 11.3456 28.0511 11.09C27.4188 10.0001 25.8446 10.0001 25.2257 11.09C24.6068 12.1798 25.3872 13.5387 26.6384 13.5387V13.5521Z" fill="#ECDEC3"/>
</svg>
